<svg viewBox="104.00000000000011 156 766.9999999999998 624" xmlns="http://www.w3.org/2000/svg" overflow="visible" xmlns:xlink="http://www.w3.org/1999/xlink" width="766.9999999999998px" height="624px"><g id="Master/Composition/Sticker" stroke="none" stroke-width="1" fill="none" fill-rule="evenodd"><g id="Stickers" fill="#000" transform="scale(1 1)"><g id="Stickers/Camera" stroke="none" stroke-width="1" fill="none" fill-rule="evenodd"><g id="Ink" transform="translate(113.000000, 160.000000)" fill="#000"><path d="M319.024353,159.994796 L319.478047,159.271759 L310.930879,159.271759 L310.948403,159.994796 L319.024353,159.994796 Z M227.565078,151.212962 C219.629326,114.561486 222.481952,128.074778 188.542519,130.554183 C180.69439,133.680516 185.712286,146.132182 184.326863,152.901025 C181.761447,161.674078 222.127564,152.643425 227.565078,151.212962 L227.565078,151.212962 Z M404.466826,100.08024 C404.460011,100.016816 404.45417,99.9533916 404.447354,99.8899672 C383.285349,101.694146 362.26062,104.344309 341.347854,108.041461 C332.467717,112.24796 303.564678,107.901928 303.017519,118.653821 C305.50018,126.911673 300.805517,148.34618 313.620915,146.908887 C346.828206,142.195969 380.67028,148.265192 413.988561,143.713275 C428.056971,142.672139 417.577222,121.585978 419.036637,112.210882 C418.570287,99.8021489 419.507856,99.3503723 404.466826,100.08024 L404.466826,100.08024 Z M491.944108,314.005737 C488.534587,239.759227 396.655694,206.037956 333.74215,226.28594 C299.3646,239.996336 290.828142,290.577753 294.57842,323.882374 C301.149195,374.820919 361.276318,396.346172 405.865879,401.899219 C458.18479,408.420219 494.009098,363.543092 491.944108,314.005737 L491.944108,314.005737 Z M144.697756,249.4895 C152.99179,337.532273 119.097143,325.885608 191.500293,322.820748 C214.203495,324.061914 236.584438,320.389155 259.162047,319.799797 C281.925612,325.47091 255.331935,332.722754 245.99713,332.292444 C140.989343,352.866332 145.292621,306.311874 150.87228,381.938108 C153.134909,405.47928 154.903926,429.244877 158.221929,452.647491 C159.191627,459.710038 159.858538,461.978678 169.355932,461.226368 C199.856637,456.98279 229.700166,466.941391 260.219369,466.606705 C298.037594,467.015549 335.851925,468.350387 373.627312,465.916843 C418.888651,465.025975 464.09547,463.154468 509.294499,460.566754 C533.021921,456.788614 598.220487,460.163766 611.210157,442.93283 C614.038443,410.59909 606.622589,377.943349 607.551397,345.416409 C607.626363,342.146639 607.409252,337.093181 603.058267,337.373224 C572.009431,338.558772 540.799951,337.373224 509.72288,337.352733 C502.385887,338.534378 504.128618,349.83855 501.790049,355.415991 C474.546011,457.973186 295.109028,421.015322 275.917573,331.122509 C249.225563,178.982099 444.69664,160.158724 500.590583,279.921485 C523.212003,345.474954 481.61916,318.50594 567.343976,320.041785 C577.855853,317.829738 602.522792,325.248437 607.600076,315.806989 C612.800034,269.46915 612.808796,223.338171 612.564424,176.846162 C613.030775,173.17633 613.421186,167.728666 608.439313,167.672072 C583.433564,165.790807 558.305143,164.68332 533.425962,161.651636 C481.45657,160.208488 431.220173,160.491458 379.974161,160.89835 C313.022155,162.133661 246.748744,163.389463 180.350712,172.834815 C169.304332,174.39603 156.210487,172.666008 145.995555,176.698822 C142.276432,199.316926 143.968536,225.748297 144.697756,249.4895 L144.697756,249.4895 Z M631.942808,250.334507 C627.944264,295.591205 627.480834,344.037661 630.415242,389.772481 C631.459906,408.077728 633.671909,426.559587 632.801517,444.841416 C631.307052,456.705674 620.230491,449.989522 615.320664,455.840176 C606.049143,472.632996 560.590165,470.141882 542.301231,472.278795 C488.84419,480.685938 433.836216,480.277095 379.707397,481.199188 C343.063324,483.1429 306.318971,482.749669 269.62914,482.869688 C234.867021,484.481642 201.055129,470.493155 166.449759,476.445288 C136.28397,484.565558 139.470538,386.63639 135.314272,366.325958 C126.03691,327.354126 128.762969,287.753905 127.208142,248.045376 C126.286149,221.41007 128.299539,193.897558 135.819567,168.472194 C143.804972,163.173821 154.966236,163.32116 164.13845,160.747107 C175.165359,160.861271 155.279733,119.768138 174.099275,114.158497 C193.074592,110.653569 212.685664,108.465917 231.976425,108.090249 C251.532003,108.910863 245.389608,133.39657 246.881152,146.731299 C247.015508,153.749936 255.570465,150.837294 259.876664,150.011802 C267.230208,146.086322 281.67832,147.198687 285.016768,139.254054 C286.671876,126.310605 274.610039,103.56175 290.790172,97.85063 C332.364517,92.7083778 374.646663,84.7842355 416.936598,84.908157 C448.588089,77.4406701 436.893297,117.930783 442.336652,136.615601 C449.521764,148.306174 475.428086,142.239878 488.261981,143.796214 C522.981262,143.176607 557.331551,148.655496 592.042069,148.294465 C615.830827,148.361793 625.896799,150.872422 626.21127,177.614084 C628.541076,202.140773 631.227218,225.53363 631.942808,250.334507 L631.942808,250.334507 Z" id="Fill-1"/><path d="M720.441928,243.337 C709.686374,243.522 678.673897,238.321 700.748128,227.644 C717.669928,223.572 735.025943,225.172 751.63662,230.026 C759.488358,231.937 752.790005,240.43 747.374912,240.43 C738.711928,240.485 728.787974,243.326 720.441928,243.337" id="Fill-3"/><path d="M395.572042,588.186135 C395.631458,595.691153 395.708125,603.154935 397.938167,610.442971 C399.289417,615.137044 392.787125,614.545007 390.654833,612.32708 C380.62875,601.418098 375.811208,588.353044 376.087208,573.422535 C382.28475,544.059298 400.068542,570.616498 395.572042,588.186135" id="Fill-6"/><path d="M551.792925,30.0750837 C557.333026,29.2683681 562.531956,36.1643291 558.657513,40.3718859 C547.254768,47.0287481 527.879612,73.7067382 514.703368,63.8317608 C508.820136,53.9703907 541.480358,28.4392976 551.792925,30.0750837" id="Fill-9"/><path d="M636,550.706179 C632.079729,566.963435 617.333215,541.108746 614.209787,535.488204 C612.633809,526.466735 592.773726,519.218215 600.979242,512.453582 C618.694734,500.275088 634.634546,536.668538 636,550.706179" id="Fill-11"/><path d="M235.409854,40.0079302 C225.920098,47.4204419 205.553268,19.0264884 199.657659,11.6325349 C194.957171,4.9857907 195.460585,1.02997674 204.05961,1.59453488 C217.837171,-4.80411628 231.616683,29.5186744 235.409854,40.0079302" id="Fill-13"/><path d="M38,239.752602 C34.8000297,250.743507 -3.2177012,285.491948 0.219518304,257.082307 C8.11142829,247.975724 27.4761675,222.747713 38,239.752602" id="Fill-16"/><path d="M59.0268507,368 C92.8571629,372.655654 20.4490252,397.579081 16.0037953,389.344604 C15.5929246,376.765173 48.6572564,370.840672 59.0268507,368" id="Fill-18"/><path d="M76.8415739,102.973325 C74.0592608,117.743439 34.9997904,87.7826777 33,78.9237757 C32.8921249,67.3576296 80.069758,93.1803445 76.8415739,102.973325" id="Fill-20"/><path d="M674.627317,330.331418 C686.005854,332.686282 701.982439,334.673645 706.963902,346.355373 C707.637073,356.029691 682.387317,346.091918 675.84,346.635055 C666.422439,346.467055 662.601951,329.192645 674.627317,330.331418" id="Fill-22"/><path d="M640.943442,113 C621.39367,109.957917 665.677391,80.2777645 672.487826,80.0034381 C673.889606,79.9191808 675.347264,81.3995633 674.926248,82.685958 C671.473342,98.7761785 655.608661,109.105545 640.943442,113" id="Fill-25"/><path d="M154,559.141231 C154.802002,553.735692 155.994871,537.062765 164.183784,541.855013 C172.378486,549.450457 172.397789,549.458257 168.376198,559.544891 C161.056845,581.487828 154.806827,586.82804 154,559.141231" id="Fill-27"/><path d="M393,17.733603 C398.892871,-15.46165 411.765058,25.4554725 400.581239,36.6048369 C392.572187,39.7980398 395.312178,22.7396393 393,17.733603" id="Fill-29"/><path d="M532.557268,210.985179 C534.387218,222.793022 514.833683,227.499311 505.449047,228 C490.265967,227.39879 493.512114,210.07379 503.24957,206.169754 C511.637659,202.323157 536.617162,194.718998 532.557268,210.985179" id="Fill-31"/><path d="M253.60068,264 C247.177187,261.890901 222.537849,253.353181 227.707576,244.414103 C231.829438,243.00443 230.084607,235.803588 234.554468,236.038697 C245.575422,234.825769 279.20475,262.518515 253.60068,264" id="Fill-33"/><path d="M290,215.405819 C288.955989,228.200882 260.22601,211.584105 264.41742,198.319658 C266.84352,192.346118 275.843909,196.193909 280.674018,196.509729 C288.274069,198.854718 288.684182,209.021809 290,215.405819" id="Fill-35"/><path d="M421,186.648693 C421.792338,179.544586 436.43978,169.104915 439.914861,179.159825 C441.32947,195.448065 424.699216,214.916616 421,186.648693" id="Fill-37"/><path d="M359.847819,179.425264 C359.151089,189.574807 357.800636,202.03719 348.984942,187.084888 C345.649428,180.596933 339.137054,173.343605 346.069952,166.515266 C353.700535,161.327853 361.165777,170.407055 359.847819,179.425264" id="Fill-39"/><path d="M453.768586,315.795997 C452.475546,291.87703 441.974578,270.432573 422.445677,258.549079 C406.729738,248.829319 417.660746,269.852914 417.720096,277.783038 C423.147169,307.369023 420.988209,338.22636 411.358025,366.764088 C410.643885,368.586848 412.404911,370.2323 414.329391,369.772469 C438.15286,362.95003 454.589749,340.491414 453.768586,315.795997 M332.233481,305.392337 C331.317942,351.796224 402.06156,386.830028 381.450747,359.660101 C357.653548,328.014622 365.020668,282.5869 374.797767,247.910633 C348.291896,252.751515 333.857322,280.140642 332.233481,305.392337 M469,311.232766 C469.019459,409.823489 337.522396,402.054112 319.781763,317.119957 C287.867305,206.590209 468.422072,197.54071 469,311.232766" id="Fill-41"/></g></g></g></g></svg>