<svg viewBox="116.99999999999989 208 806.0000000000001 624" xmlns="http://www.w3.org/2000/svg" overflow="visible" xmlns:xlink="http://www.w3.org/1999/xlink" width="806.0000000000001px" height="624px"><g id="Master/Composition/Sticker" stroke="none" stroke-width="1" fill="none" fill-rule="evenodd"><g id="Stickers" fill="#000" transform="scale(1 1)"><g id="Stickers/Laptop" stroke="none" stroke-width="1" fill="none" fill-rule="evenodd"><g id="Ink" transform="translate(122.000000, 218.000000)" fill="#000"><path d="M762.9029,408.7141 C715.9669,377.9211 670.0909,339.0841 623.4309,310.4841 C507.0739,348.9291 391.3729,390.0991 272.2619,419.5951 C261.6199,423.8531 228.3199,426.1611 226.8639,436.7081 C265.9599,474.0761 303.2609,513.2831 341.3569,551.6931 C346.4969,557.9781 351.9329,561.8181 359.7249,557.0451 C401.8779,541.3431 444.1909,526.0791 486.5259,510.8731 C577.6679,475.2331 674.3799,448.1481 762.9029,408.7141 M617.4459,293.8141 C613.5919,266.6931 596.8789,242.3731 585.1059,217.9651 C557.5409,163.8881 539.2419,105.7891 512.8409,51.1921 C496.3269,2.0731 501.8219,19.8771 454.5379,27.0891 C393.8679,43.3231 333.7499,61.7741 274.4799,82.5691 C238.6589,95.6301 202.1309,106.6931 165.8999,118.5541 C156.7029,122.4721 144.5369,123.7991 137.1229,130.3411 C135.8349,133.8991 132.9219,135.3001 130.2689,137.0091 C117.1409,145.4701 103.8069,153.6171 90.5649,161.8961 C85.7299,165.7791 93.1119,171.9471 94.1349,176.3691 C130.2369,255.7021 154.6419,340.0521 201.9959,414.0551 C204.5039,417.6061 207.7659,424.8601 213.0789,421.8951 C222.9149,416.4231 233.0359,411.2951 244.0049,408.4991 C309.1609,393.7261 372.7469,373.2931 436.5739,353.9701 C487.6239,339.7041 538.4829,324.7481 588.2769,306.5441 C596.4949,301.6811 614.5839,303.4131 617.4459,293.8141 M93.0159,146.9091 C60.2819,143.7351 138.6969,114.8631 144.5529,109.8151 C235.1699,75.1881 327.3119,39.6051 422.2529,16.9951 C522.1439,-3.5209 505.0809,-18.7549 539.6409,66.7041 C561.0999,112.0101 573.8639,160.9311 597.2249,205.4951 C609.7719,232.3471 626.4969,257.8271 633.4169,286.8951 C634.4119,292.0901 640.7289,289.7311 643.5209,293.5801 C661.6429,308.1321 682.1189,318.6331 700.4999,332.7981 C713.4909,346.5261 836.8089,411.2541 780.3429,418.6821 C633.5279,467.6101 489.8919,532.6161 341.5659,573.8931 C312.2729,567.0461 300.8739,532.4151 277.7689,515.5771 C253.2949,493.4171 233.9059,465.6171 206.6509,446.7231 C166.9329,405.1811 146.2309,343.0681 117.8009,293.0861 C101.1969,278.2231 98.2909,256.5801 89.0499,237.7321 C71.6759,212.0901 61.3829,182.3661 69.2889,151.5261 C69.9579,148.5261 75.7669,148.7161 77.5689,149.6931 C84.0149,153.9971 86.6969,149.1931 93.0159,146.9091" id="Fill-1"/><path d="M147.193,588.5149 C148.415,574.8939 169.772,517.1539 187.31,529.3709 C195.414,543.1039 170.323,578.0399 165.899,594.2069 C158.221,613.1279 150.214,601.3639 147.193,588.5149" id="Fill-4"/><path d="M717.8929,228.7546 C707.0949,228.6176 640.2069,220.2296 666.3679,203.0956 C690.3189,200.9886 716.2549,205.0726 739.0709,212.4136 C752.7019,224.0136 726.8449,229.7986 717.8929,228.7546" id="Fill-6"/><path d="M656.3436,151.3874 C610.1966,149.9794 727.6566,105.9044 730.3256,117.0874 C749.3966,138.7124 669.1196,146.1884 656.3436,151.3874" id="Fill-8"/><path d="M8.1173,356.8166 C-26.8317,351.8606 61.9233,304.5666 69.5213,318.1056 C72.8743,332.1786 20.6823,352.7346 8.1173,356.8166" id="Fill-10"/><path d="M56.492,487.2346 C54.02,475.2526 105.107,419.8996 110.022,446.4196 C104.118,453.8526 61.184,510.5666 56.492,487.2346" id="Fill-12"/><path d="M766.9822,307.5549 C756.6272,303.1319 727.2332,304.3449 723.3382,293.0569 C726.0222,276.1699 787.1132,298.1459 766.9822,307.5549" id="Fill-14"/><path d="M519.4634,256.215 C518.7824,245.017 528.6454,258.11 533.1594,253.723 C524.8734,219.625 501.7504,186.015 486.8364,152.901 C477.9504,134.615 468.8334,116.411 463.1524,96.749 C461.9614,88.03 453.8164,91.976 447.8804,92.452 C368.6214,111.644 291.9864,140.374 212.5834,159.229 C191.6174,165.398 171.0964,173.158 150.2544,179.768 C141.8224,184.608 157.2644,192.835 158.4114,198.734 C177.6094,239.088 194.6744,279.969 220.8384,316.203 C230.0984,325.68 243.5074,364.708 258.5364,354.422 C343.9704,319.712 438.4424,297.627 519.4634,256.215 M248.5704,372.339 C222.3534,370.453 211.3834,336.023 197.9274,317.061 C167.2164,279.639 157.3624,231.157 134.4924,189.333 C119.6644,170.534 220.8954,144.029 235.2824,136.986 C311.3714,117.383 384.3104,86.088 461.6814,71.838 C487.1584,67.316 485.6824,113.358 498.9204,129.021 C517.7344,165.835 535.8754,203.128 549.2644,242.356 C550.7674,248.269 557.2244,254.649 552.4004,260.511 C541.2864,276.743 519.4474,270.269 504.3004,280.014 C420.8934,314.958 333.9924,345.029 248.5704,372.339" id="Fill-16"/><path d="M588.6212,407.4529 C548.1472,387.2149 539.5882,387.2399 499.3702,406.0939 C482.8132,413.4779 466.1172,420.7209 450.9302,430.7749 C438.8542,438.7689 438.9832,436.2799 446.4492,448.5159 C450.8242,452.9969 452.7152,466.6959 460.6262,463.4999 C477.9442,456.0329 495.3712,448.7949 512.4552,440.8229 C536.5122,427.2999 565.9122,421.5539 588.6212,407.4529 M415.0572,436.6969 C429.6202,411.0639 469.1702,401.3089 495.6852,389.7619 C507.3202,383.0889 533.3032,386.4009 539.6792,377.8769 C540.5532,375.6599 543.7252,375.2619 546.4402,375.3499 C558.7392,375.9149 630.8372,396.7879 609.1392,414.1619 C564.4342,438.2869 515.4102,454.6279 470.0512,478.1089 C452.2342,491.0079 444.0362,485.6859 433.6542,467.9769 C427.2952,457.7549 416.4292,449.2329 415.0572,436.6969" id="Fill-18"/><path d="M394.8114,174.3049 C388.3154,175.1959 391.2284,179.9389 394.2354,183.6649 C408.7594,197.3029 393.4354,227.3869 401.9194,225.8839 C419.2884,221.2659 428.9024,205.7629 438.2814,191.7629 C445.6194,182.0329 401.8634,176.0949 394.8114,174.3049 M291.6624,251.1259 C291.6634,251.2559 291.6634,251.3859 291.6644,251.5149 C364.2274,248.1109 325.3434,254.5479 319.7674,214.7539 C318.2794,209.1199 324.9974,186.2009 317.1974,187.4849 C293.0504,198.6099 282.1734,224.8239 269.6284,246.5819 C267.6054,255.4719 286.1494,249.4719 291.6624,251.1259 M296.6724,269.0809 C226.5454,269.6139 252.2984,255.6109 273.9154,205.1869 C294.8094,168.1719 339.3974,154.0309 379.7324,156.0129 C404.2004,154.1189 426.6604,161.2559 449.5644,168.8149 C472.4964,177.8659 452.3104,202.4139 444.8894,216.2419 C429.8934,242.3879 399.1434,247.5089 373.5094,258.4329 C349.1114,268.8199 322.8524,271.0189 296.6714,269.7709 C296.6724,269.5409 296.6724,269.3109 296.6724,269.0809" id="Fill-20"/></g></g></g></g></svg>