<svg viewBox="195 234 571.9999999999999 611" xmlns="http://www.w3.org/2000/svg" overflow="visible" xmlns:xlink="http://www.w3.org/1999/xlink" width="571.9999999999999px" height="611px"><g id="Master/Composition/Sticker" stroke="none" stroke-width="1" fill="none" fill-rule="evenodd"><g id="Stickers" fill="#000" transform="scale(1 1)"><g id="Stickers/Phone" stroke="none" stroke-width="1" fill="none" fill-rule="evenodd"><g id="Ink" transform="translate(204.000000, 239.000000)" fill="#000"><path d="M200.281964,395.205939 C200.281964,395.188638 200.281964,395.170319 200.281964,395.153018 C190.67601,397.235281 145.365966,390.31883 145.628265,399.0509 C146.959581,427.274417 146.844055,455.295408 155.31418,482.495095 C156.069959,486.236248 157.843881,487.146093 161.970436,487.369992 C212.403583,491.664787 262.572207,495.806923 313.356251,494.588707 C351.460479,493.641206 391.145366,501.719898 427.740195,488.942376 C434.862875,486.482537 426.914237,478.995143 427.2457,474.410297 C428.539162,448.107224 420.161889,423.560743 415.672561,397.943617 C415.87878,385.108084 378.374857,393.087038 368.23122,391.267348 C312.338108,395.175408 256.310036,395.128592 200.281964,395.205939 M145.099284,389.264468 C194.594185,368.731889 247.373487,377.256344 299.623743,377.748922 C327.082281,376.3638 353.678151,375.478381 380.877566,373.745197 C389.437305,371.466513 411.321432,378.690317 412.059936,367.566596 C407.124698,287.566378 390.441412,208.449545 388.201066,128.345519 C389.054017,112.211544 387.855567,103.133447 368.104897,102.35387 C314.041851,94.6283288 259.299683,101.906072 204.909492,98.3694816 C200.699802,98.2544788 196.293609,99.3810991 192.366796,96.7563894 C188.698028,96.7706375 184.255126,98.4600591 180.417927,98.5475833 C170.00113,101.828725 131.719833,93.4233438 135.876619,108.804204 C141.410002,202.224128 138.489455,295.771268 145.099284,389.264468 M449.49368,480.65505 C486.358431,529.983107 285.704449,508.650598 259.431404,513.130618 C237.439309,512.896541 215.585413,510.88959 193.883753,507.583005 C180.511859,505.718535 167.074105,499.54604 153.666582,504.777141 C141.569795,508.988482 140.234226,482.164335 137.546891,474.814333 C114.529095,355.947243 116.936792,232.257158 119.769884,111.552058 C123.290735,72.2221209 189.791748,82.2589133 219.545696,78.2429751 C277.763369,76.6380246 336.312504,74.9078941 393.764681,84.733 C425.247204,88.9290753 412.735819,128.532781 416.746847,149.52537 C418.881383,177.521935 422.28023,205.444206 424.807772,233.402098 C430.621873,298.84174 436.446772,364.568381 447.50922,429.395354 C449.923395,446.82591 453.769231,468.725292 445.957713,483.082322 C447.88711,482.96223 449.364118,482.844174 449.49368,480.65505" id="Fill-1"/><path d="M535.652547,448 C522.996176,444.966874 480.194279,445.03322 498.476539,425.224322 C513.633664,411.21926 583.116356,447.332574 535.652547,448" id="Fill-3"/><path d="M53.2149448,321.977096 C45.2267344,322.461303 -2.38775914,315.223062 10.0645467,304.538704 C31.4472066,293.988571 122.96603,319.578932 53.2149448,321.977096" id="Fill-5"/><path d="M289.683542,587.394418 C288.573125,632.791864 259.022083,566.040793 267.135625,552.525686 C284.721042,530.846346 290.622083,575.406096 289.683542,587.394418" id="Fill-7"/><path d="M446.758824,1.09231515 C451.020457,0.58849697 456.651437,6.60443636 453.406539,9.95807273 C441.33011,18.2757091 416.601824,45.9486182 402.987314,29.3463152 C399.3076,11.5313455 431.963171,2.65734545 446.758824,1.09231515" id="Fill-10"/><path d="M34.0562857,234.251136 C46.9869807,235.321684 64.7762728,230.196092 73.6293323,241.584032 C74.628488,242.765607 73.4640666,244.880219 71.8459744,244.774285 C50.5126501,245.901874 29.1199165,252.278306 7.62132639,249.140002 C-16.375693,233.235592 22.9715984,233.598214 34.0562857,234.476246 C34.0562857,234.40087 34.0562857,234.325494 34.0562857,234.251136" id="Fill-13"/><path d="M503,154.141157 C499.848329,171.830168 473.773755,168.112995 460.684925,176.266286 C450.991524,180.154039 447.913946,167.566722 454.492187,162.523632 C464.920084,153.767556 493.215323,139.875252 503,154.141157" id="Fill-15"/><path d="M509.198671,256 C499.540747,252.622616 443.838729,254.937967 458.418553,238.153665 C469.14767,228.965986 548.385842,251.894337 509.198671,256" id="Fill-17"/><path d="M14.468939,158 C35.931168,163.572053 64.794947,172.473358 75,191.63275 C60.1494195,195.248777 27.026431,171.053877 8.54359844,167.610532 C-2.17618548,163.492907 8.678486,159.769982 14.468939,158" id="Fill-19"/><path d="M157,564.433742 C155.460513,569.265462 154.234965,575.069405 151.752583,580.352261 C134.858143,617.027101 127.28801,580.136324 137.877781,561.957055 C142.97632,550.951359 155.815447,550.982787 157,564.433742" id="Fill-21"/><path d="M43,426.156807 C48.7980167,407.933445 49.6155458,386.8589 69.5080259,380.161337 C78.0162225,378.663414 76.908356,387.976186 73.2725891,392.363254 C66.6046516,400.834726 50.9668155,436.423735 43,426.156807" id="Fill-23"/><path d="M548.657487,552 C535.254764,550.743542 503.572449,545.871418 512.590323,530.286177 C514.753486,527.945812 516.854875,527.400388 519.828682,528.65883 C531.787851,532.702901 542.678444,540.995328 555.605401,541.73413 C560.618823,541.088546 561.593114,548.887117 557.224522,550.130683 C554.002536,551.211614 550.509614,551.618203 548.657487,552" id="Fill-25"/><path d="M398.547886,549 C406.120706,550.480934 413.227709,549.613748 416.017117,556.941061 C419.521729,567.085711 429.074271,577.711791 428.999564,587.971455 C414.948155,588.99335 387.533076,562.322296 398.547886,549" id="Fill-27"/><path d="M145,42 C131.006699,40.4692413 110.517253,22.9289177 102.108993,11.918411 C99.5796074,-19.7385712 141.882946,33.7821895 145,42" id="Fill-29"/><path d="M69,82.427477 C58.9427851,90.8109353 38.2858681,76.3137417 26.9893034,72.8983677 C16.5668065,69.2603371 15.5405379,58.2824893 28.7037373,60.2295075 C44.0923306,64.2677312 59.2417511,70.3883326 69,82.427477" id="Fill-31"/><path d="M483.485674,330.000676 C497.056944,330.541831 510.652058,333.012878 516.40267,343.873308 C518.286304,347.669254 515.456517,350.543958 511.52668,348.087642 C500.369019,342.847961 485.309699,348.741743 475.156716,341.999398 C467.437934,334.681523 475.298693,329.934873 483.485674,330.000676" id="Fill-33"/><path d="M270,25.7073541 C266.888778,32.5933613 268.618386,44.7307516 260.838259,48 C238.970637,40.5219001 263.801377,-0.647394071 270,25.7073541" id="Fill-35"/><path d="M498.440023,64.0103037 C537.879571,68.9054212 500.952708,78.6404223 483.936469,77.9667641 C466.0096,69.0642191 487.196197,63.7331471 498.440023,64.0103037" id="Fill-37"/><path d="M303.077111,211.883522 C297.465805,211.612169 296.197829,213.152197 297.599845,217.366265 C303.652186,232.810082 299.507754,249.509412 298.676489,265.426072 C311.148701,274.966955 330.802865,248.252887 334.236021,237.429153 C334.599226,227.738419 313.218755,211.190965 303.077111,211.883522 M240.283665,214.242671 C220.431683,216.167452 202.37627,225.932101 189.461943,240.042442 C180.818521,247.410479 228.937822,260.593361 235.482004,264.942092 C248.402818,269.550026 235.514433,243.126548 239.344304,236.61712 C239.263231,229.433361 244.46485,220.497958 240.283665,214.242671 M337.343804,207.686667 C365.67382,235.779774 358.654012,241.670559 334.700837,270.791363 C314.609961,290.110057 283.071631,286.514634 256.675468,288 C224.815009,288.017199 196.375816,271.851462 169.902903,257.022238 C158.363567,246.868786 184.652715,229.263259 189.098737,218.737203 C195.995315,213.91968 192.312456,208.790303 186.080674,205.702147 C180.815278,202.615004 165.714151,187.905256 178.075023,186.462429 C191.902769,186.036162 195.769392,210.730273 210.10195,203.410837 C236.550001,197.378301 194.65059,172.177936 213.521053,161.545566 C228.7346,162.283686 225.330631,193.51355 240.984132,192.941482 C279.918447,188.25761 267.766202,189.808775 270.211352,157.994693 C282.608977,142.126634 289.274227,168.239271 285.378418,178.447399 C282.755989,189.591086 287.235521,190.753447 297.033417,189.588048 C304.982858,188.258622 297.710103,174.137143 306.428112,169.041179 C321.466543,159.325132 317.338325,181.659081 314.925604,189.263032 C313.593851,195.339106 322.025403,195.855486 325.913646,198.771515 C327.772911,199.655437 329.427874,199.731375 331.149856,198.079971 C359.552297,171.622068 375.796007,188.648439 337.343804,207.686667" id="Fill-39"/><path d="M286.599206,116.333621 C294.837522,117.654839 310.492044,112.448713 314,121.358918 C313.545903,127.220306 311.598234,129.458308 305.772445,129.64011 C293.695822,130.017323 281.597679,130.081488 269.5146,129.909409 C261.731458,130.664807 249.767822,123.58817 259.880634,117.732615 C268.540766,115.402254 277.694809,116.61167 286.599206,116.367648 C286.599206,116.355981 286.599206,116.344315 286.599206,116.333621" id="Fill-41"/><path d="M234.996691,124.352854 C235.256788,136.667943 220.10246,141.366516 218.085125,127.708691 C216.689485,118.053019 232.887371,115.700226 234.996691,124.352854" id="Fill-43"/><path d="M283.315252,427.620454 C263.362057,432.984116 284.313237,462.415596 299.36202,451.902334 C314.304727,441.890905 294.478174,429.232986 283.315252,427.620454 M281.608287,412 C360.13408,414.119414 311.596531,501.262767 262.032854,455.966479 C250.55928,444.331412 258.423008,430.422443 261.481906,417.695862 C264.631727,411.755646 275.505645,413.632726 281.608287,412" id="Fill-45"/></g></g></g></g></svg>