<svg viewBox="221 208 598 637" xmlns="http://www.w3.org/2000/svg" overflow="visible" xmlns:xlink="http://www.w3.org/1999/xlink" width="598px" height="637px"><g id="Master/Composition/Sticker" stroke="none" stroke-width="1" fill="none" fill-rule="evenodd"><g id="Stickers" fill="#000" transform="scale(1 1)"><g id="Stickers/Cloud Rain" stroke="none" stroke-width="1" fill="none" fill-rule="evenodd"><g id="Ink" transform="translate(229.000000, 213.000000)" fill="#000"><path d="M419.7663,176.2831 C419.6553,184.5631 421.9373,189.4401 429.3293,182.2611 C438.1083,170.7761 440.4733,157.4711 439.6953,143.3971 C432.1333,134.6491 417.5013,168.9101 419.7663,176.2831 M324.4243,110.9771 C323.2823,91.9931 318.9403,71.3031 301.6863,59.9661 C300.1053,58.7171 298.2083,58.3001 296.7673,59.7931 C275.0403,79.5201 273.5103,116.7401 291.8563,139.1441 C297.4673,145.6131 304.5163,145.4161 311.8703,143.5121 C326.5733,139.6281 322.7023,123.0981 324.4243,110.9771 M134.2903,142.2821 C132.8653,176.6501 161.8683,207.5251 196.9193,195.8881 C222.4203,182.4371 196.3673,133.7231 175.0333,125.2931 C147.2053,115.6421 135.2333,104.0031 134.2903,142.2821 M285.2903,49.2711 C248.8543,25.4311 194.8493,25.0471 163.7523,55.4641 C158.9983,63.7251 137.2373,95.4691 148.0703,101.2851 C166.8973,106.3331 186.9613,110.6611 200.3523,126.0731 C241.3683,174.1781 216.5943,232.5511 151.5633,204.4841 C127.9523,192.9741 117.7483,168.0621 118.2163,142.8841 C115.8663,135.4501 124.8043,120.1091 116.0843,116.9701 C74.7263,116.0711 43.5073,147.2691 25.4653,181.7771 C15.2483,201.9041 20.1393,225.5561 19.7833,247.2771 C21.3293,259.0911 22.2323,284.8801 38.1643,284.2931 C100.5103,281.8241 163.1063,281.7721 225.5143,279.5131 C286.7943,275.4691 348.3163,278.4711 409.5733,274.1381 C422.5863,275.2261 488.0803,264.7571 490.1613,273.9771 C490.6133,283.0951 499.7683,282.0121 506.3743,281.8971 C520.5343,279.7961 538.7163,284.8521 550.9073,278.3881 C552.2643,265.8081 563.9953,257.1081 562.9343,243.9501 C561.1083,204.6121 541.6213,166.2421 512.6473,139.8871 C504.1843,129.7531 459.3893,117.1971 456.8693,136.1941 C454.8363,150.7751 456.6933,166.6081 448.7053,179.6791 C433.4953,205.3471 401.6503,212.9831 407.3503,173.0931 C416.6863,115.2391 461.3153,146.0171 435.5773,60.8291 C417.3823,31.8701 374.6623,5.2271 341.3073,24.8781 C331.9463,30.5631 323.6263,37.5741 314.7473,43.8581 C309.4393,47.9101 318.3313,52.1821 320.6523,55.3671 C347.0803,81.1001 353.8313,158.3431 303.6773,158.9261 C255.4013,151.6311 256.7923,78.0521 285.2903,49.2711 M275.7873,302.2211 C228.2283,302.5851 180.6813,301.8201 133.1323,301.0001 C106.2453,300.7051 79.3523,300.8211 52.5093,298.7871 C41.3383,297.8941 29.0723,303.3241 20.9613,292.9581 C-3.8427,263.2401 -6.6987,192.9841 18.3003,162.8021 C36.6913,136.2551 60.9483,109.1111 94.5673,103.9981 C104.5313,100.3801 121.9933,104.4921 127.1763,93.8371 C132.1203,79.0241 137.9063,64.4321 146.9683,51.5861 C174.7283,12.2011 233.8533,6.7711 275.5683,25.2601 C284.3113,27.3021 292.2303,36.3671 300.9813,35.2411 C324.7443,18.1971 348.5633,-5.5089 380.3783,2.6251 C434.7743,20.2601 462.4953,54.1651 458.9233,112.4311 C467.0863,121.7611 497.0963,105.5781 518.7903,125.9741 C551.8033,151.7521 571.2953,190.9461 579.8473,231.2261 C587.0273,252.4451 570.8613,267.7441 571.1643,285.7271 C573.6483,293.8131 566.5773,298.3741 558.9983,296.9801 C540.8333,296.1811 522.6833,295.9131 504.5753,298.0361 C428.3323,300.0921 352.0283,299.7641 275.7843,301.9201 C275.7853,302.0201 275.7863,302.1211 275.7873,302.2211" id="Fill-1"/><path d="M295.5134,368.6464 C296.4734,363.9964 297.4864,358.2984 298.8444,352.6854 C301.2474,339.0854 326.1504,317.3054 326.7584,342.9504 C325.1674,361.1914 296.2264,419.8904 295.5134,368.6464" id="Fill-10"/><path d="M63.6296,363.7616 C65.0926,351.4616 66.4486,322.3366 77.5846,318.9776 C82.7816,322.0586 91.7586,321.9886 90.7806,330.5036 C88.9296,345.0146 70.6376,412.2536 63.6296,363.7616" id="Fill-12"/><path d="M417.5974,379.247 C419.0094,366.329 426.4634,323.638 444.3424,339.192 C459.9914,350 433.1164,376.991 428.9734,390.351 C422.6224,402.326 415.5874,385.528 417.5974,379.247" id="Fill-14"/><path d="M376.4196,423.6493 C366.9696,439.7323 362.2106,454.8903 357.3736,472.2173 C342.5096,484.1563 344.3996,436.7733 351.8976,430.4533 C357.2986,422.4993 368.4566,414.6063 376.4196,423.6493" id="Fill-18"/><path d="M227.9968,439.5995 C227.7088,432.1365 232.4668,415.0405 244.5688,416.7965 C267.5128,424.7835 242.7448,453.9425 234.7438,466.0075 C225.5478,473.1645 229.8178,447.1495 227.9968,439.5995" id="Fill-20"/><path d="M179.406,378.3329 C176.415,366.7889 196.324,319.3709 209.371,342.8959 C207.403,351.6689 179.213,415.3699 179.406,378.3329" id="Fill-22"/><path d="M411.6599,516.0663 C411.8869,524.3713 395.5309,561.4083 386.6009,553.4283 C390.4939,540.4753 387.8219,507.3023 403.9439,504.8323 C409.8359,505.7013 412.2109,510.1103 411.6599,516.0663" id="Fill-24"/><path d="M106.1296,449.5419 C104.9046,438.7329 128.3196,405.6579 130.6886,429.4639 C136.8566,441.2819 121.8526,452.8379 114.1196,460.2829 C107.6556,464.9959 107.4946,453.0169 106.1296,449.5419" id="Fill-26"/><path d="M265.5652,540.1063 C262.5832,520.8863 288.8852,500.1533 289.8972,526.9093 C283.6942,537.9833 269.2852,571.3503 265.5652,540.1063" id="Fill-28"/><path d="M293.4323,612.4706 C288.6453,596.0866 309.8293,575.2836 314.2053,589.6196 C312.0733,597.0136 319.5093,599.2516 317.2883,605.3576 C313.8193,610.5406 292.3523,626.7756 292.6533,612.5056 L293.4323,612.4706 Z" id="Fill-30"/><path d="M463.5427,460.2245 C460.9987,448.6995 478.6857,422.0795 488.1387,437.1945 C493.4597,445.8705 462.0637,484.1045 463.9947,460.2435 C463.8447,460.2375 463.6937,460.2305 463.5427,460.2245" id="Fill-32"/><path d="M170.3532,518.2802 C171.0242,512.4352 170.9682,501.1342 180.2862,502.1472 C184.6762,502.2642 188.2412,505.0462 188.4382,509.2482 C188.7632,528.8032 170.6032,557.4262 170.3532,518.2802" id="Fill-34"/><path d="M237.4392,593.7216 C256.0172,595.5476 234.5702,620.0536 227.2772,621.9596 C214.9612,617.7966 226.0282,591.9026 237.4392,593.7216" id="Fill-36"/></g></g></g></g></svg>