<svg viewBox="116.99999999999989 91 806.0000000000001 780.0000000000001" xmlns="http://www.w3.org/2000/svg" overflow="visible" xmlns:xlink="http://www.w3.org/1999/xlink" width="806.0000000000001px" height="780.0000000000001px"><g id="Master/Composition/Sticker" stroke="none" stroke-width="1" fill="none" fill-rule="evenodd"><g id="Stickers" fill="#000" transform="scale(1 1)"><g id="Stickers/Selfie" stroke="none" stroke-width="1" fill="none" fill-rule="evenodd"><g id="Ink" transform="translate(120.000000, 92.000000)" fill="#000"><path d="M476.992186,456.389944 C465.504887,461.541014 485.979849,475.429075 491.391352,471.510953 C494.061657,463.987214 483.9699,456.09451 476.992186,456.389944 M469.528724,490.20344 C470.441143,472.94611 458.143825,478.560683 451.226502,485.99251 C445.196654,494.17277 468.575606,512.258631 469.528724,490.20344 M382.747756,510.060597 C382.325023,500.517397 371.515146,500.585675 364.142269,498.713275 C355.263571,514.620797 380.925542,537.440179 382.747756,510.060597 M431.631138,511.17931 C431.008855,497.711423 429.484654,496.495544 418.140453,500.72617 C413.961702,502.573623 406.015117,502.471205 406.336761,508.607057 C408.111713,521.457814 431.959347,527.220762 431.631138,511.17931 M595.425587,353.770344 C578.273408,355.496997 545.077082,363.513127 547.885234,384.176492 C553.283609,401.064857 556.959544,407.163944 569.906716,390.962301 C575.159365,383.677536 614.553582,358.879397 595.425587,353.770344 M624.428721,405.580414 C610.097822,407.012944 596.175216,411.21337 582.286742,414.857066 C557.294317,422.472718 559.431611,421.936997 569.192534,445.061005 C570.553943,448.284527 573.070646,448.901657 576.537841,447.416605 C586.230496,443.287083 637.198659,416.070318 624.428721,405.580414 M642.078464,445.699144 C622.850694,449.44657 603.542841,456.066936 585.189419,463.091718 C574.676242,469.38251 591.172004,482.750605 593.613876,490.647249 C599.925983,499.157083 614.209619,482.866153 623.614764,482.705962 C641.569084,476.887866 681.353213,455.367083 642.078464,445.699144 M483.780852,485.334675 C476.599649,533.667805 458.227847,499.682301 449.681296,515.717188 C448.283127,548.222892 411.238884,534.106362 391.969103,532.823518 C384.816782,537.157875 376.933213,537.40604 368.935427,536.813857 C365.134772,536.532866 362.21109,537.819649 360.01078,540.959136 C351.289622,553.401536 340.021566,562.871205 326.42848,569.613683 C319.268282,580.309736 353.02125,623.499675 358.016584,638.662701 C369.899047,649.950936 392.095135,634.115631 406.642651,632.361405 C448.365836,623.159597 488.181472,607.705075 528.197972,593.076457 C623.354822,560.000892 591.854678,578.892962 555.046745,487.837336 C534.43656,447.465188 521.537964,402.89524 508.275713,360.074266 C493.409178,330.912883 481.631742,298.156388 469.533975,266.546179 C425.69844,172.51651 461.327448,183.804744 350.412649,215.829875 C320.256847,228.702953 214.662964,262.761988 212.259165,294.457544 C218.271945,323.63731 228.438534,351.623518 236.694948,380.13757 C245.33471,416.473423 264.252651,449.17477 272.106026,485.735153 C275.012641,497.228223 276.01302,513.670153 291.83136,505.223344 C318.866555,494.319831 365.267368,513.114736 344.470761,487.822892 C342.73782,484.868544 344.422186,481.805214 347.739718,481.287875 C374.017408,483.111692 399.495582,494.410431 424.614039,479.55991 C449.875595,468.807397 450.713183,461.161544 462.486681,439.49764 C499.492852,419.825623 536.688071,492.362083 483.780852,485.334675 M474.068504,716.020657 C460.424218,650.506353 503.01256,684.218744 522.537031,637.492779 C525.429205,631.320162 536.677568,607.649927 521.243889,616.234605 C501.417467,623.732083 480.922812,633.734849 460.938849,637.789527 C452.71263,646.316431 419.780183,646.378144 419.033181,658.890136 C429.040916,667.820144 441.579796,698.947153 420.378836,699.725788 C408.756314,696.890927 411.036707,684.042797 406.95248,675.355701 C394.170726,643.734988 371.568972,684.913344 352.720611,674.184466 C321.673395,648.493457 314.282138,603.789579 296.293683,569.964266 C282.833194,544.652727 324.200601,545.800327 335.677397,531.459266 C355.006256,505.399292 283.473857,528.004649 274.520328,533.686188 C211.781293,557.913153 256.417657,615.706762 277.174879,654.872223 C289.923812,672.860918 334.424953,787.292657 285.347272,720.75024 C265.606183,669.464075 179.497387,574.395788 238.911012,529.575049 C244.054697,522.701266 263.585732,519.871657 258.231994,509.305597 C224.267659,454.331092 208.75521,392.004857 191.326023,330.499275 C181.298595,300.254631 183.454269,265.069005 217.888598,253.162327 C276.998959,223.066057 338.444852,197.067797 403.403889,182.587553 C426.797282,179.357466 458.955157,163.54711 470.869127,192.947466 C494.634052,247.450588 515.17597,303.314023 538.074424,358.226814 C544.839459,367.299944 556.334635,348.519483 564.290411,346.148127 C583.409216,330.23404 636.90721,332.57651 618.955515,367.670223 C617.079475,374.797423 596.150272,386.986405 603.705633,392.79137 C627.928737,390.472536 669.34078,387.309414 637.798625,421.444605 C634.899887,425.759266 628.449932,427.534501 628.709873,434.094466 C651.41009,430.55844 688.556734,445.724092 670.836098,473.182457 C657.072344,488.858883 636.920339,497.295188 617.978766,505.103857 C600.083523,512.083997 603.118796,510.757823 609.67509,527.248336 C614.856847,540.334127 641.276322,569.633379 619.4859,577.14924 C595.443967,580.346501 576.445943,595.745875 553.36763,602.269075 C543.118333,606.834527 554.73429,625.860527 550.123617,636.636675 C547.664678,659.61231 532.753507,681.358936 511.153445,690.346718 C492.592595,692.819179 511.737657,743.312266 507.570721,760.727162 C481.986207,813.003362 472.590253,738.794083 472.819999,716.125701 C473.236167,716.091562 473.652336,716.05611 474.068504,716.020657" id="Fill-1"/><path d="M406.455706,133.72863 C387.357831,130.967679 435.070689,63.1787138 447.506854,74.2133333 C456.19904,87.1546363 424.894439,138.154813 406.455706,133.72863" id="Fill-4"/><path d="M664.133745,603 C673.261782,604.953609 744.666418,650.133115 721.343309,655 C714.337949,654.603214 710.116297,647.461074 702.128606,648.11755 C688.815788,644.770578 652.935703,619.318301 664.133745,603" id="Fill-6"/><path d="M1.60030853,309 C8.44633633,310.465206 61.9998135,344.349836 44.5074816,348 C39.2534614,347.702411 36.087223,342.345806 30.0964548,342.838163 C20.1118413,340.327934 -6.79822298,321.238725 1.60030853,309" id="Fill-6"/><path d="M514.308628,203 C483.012185,192.779622 539.739589,171.557338 550.937327,168.883147 C559.497549,164.921431 576.04315,175.17271 563.410905,182.097022 C548.639255,192.516967 533.19652,201.599172 514.308628,203" id="Fill-8"/><path d="M715.03615,545 C701.572123,538.985113 654.232098,538.307544 663.097851,517.305508 C665.77963,496.035565 742.608722,534.537347 715.03615,545" id="Fill-10"/><path d="M665,695.915179 C673.219181,667.194087 711.877818,716.11496 718,726.928454 C699.876126,727.873373 666.183024,719.560442 665,695.915179" id="Fill-12"/><path d="M241.616707,202.086709 C223.258582,208.774267 175.18236,176.923761 199.932282,165.451792 C212.82001,160.762937 250.668566,193.929986 241.616707,202.086709" id="Fill-14"/><path d="M254.999381,115.213374 C267.868451,110.54206 308.88143,184.311141 274.711739,166.103352 C266.165309,162.042933 236.4131,113.885627 254.999381,115.213374" id="Fill-16"/><path d="M322.072624,107.440938 C320.423312,76.5598422 347.436226,111.263801 345.172206,124.585622 C345.156411,131.828529 348.386588,139.053125 346.295002,146.262028 C331.386696,160.38818 322.92558,115.662121 322.072624,107.440938" id="Fill-18"/><path d="M151.072624,567.440938 C149.423312,536.559842 176.436226,571.263801 174.172206,584.585622 C174.156411,591.828529 177.386588,599.053125 175.295002,606.262028 C160.386696,620.38818 151.92558,575.662121 151.072624,567.440938" id="Fill-18"/><path d="M750.949104,589 C758.058689,591.093021 780.192598,601.14298 778.949691,609.564294 C767.587644,632.47043 716.047384,595.767389 750.949104,589" id="Fill-20"/><path d="M66.9618276,299 C72.2940166,300.569766 88.8944489,308.107235 87.9622685,314.423221 C79.4407328,331.602822 40.7855383,304.075542 66.9618276,299" id="Fill-20"/><path d="M570.5309,244.451548 C615.820631,247.187715 560.730563,269.930791 543.51549,259.09056 C521.520052,246.469732 561.527945,242.55738 570.5309,244.451548" id="Fill-22"/><path d="M300.690217,73.8260698 C286.280746,75.7118731 274.472166,61.9480625 277.468258,47.8132741 C278.252246,36.9272289 290.169892,32.151563 297.446482,39.6006879 C303.472028,49.7958543 299.807429,62.2222634 300.690217,73.8260698" id="Fill-24"/><path d="M137.690217,525.82607 C123.280746,527.711873 111.472166,513.948062 114.468258,499.813274 C115.252246,488.927229 127.169892,484.151563 134.446482,491.600688 C140.472028,501.795854 136.807429,514.222263 137.690217,525.82607" id="Fill-24"/><path d="M604,701.778255 C587.997757,704.470177 577.044391,682.018174 572.142897,668.860151 C569.93866,649.334494 593.942677,671.242582 595.394343,680.198097 C597.029914,687.968323 602.865274,694.267475 604,701.778255" id="Fill-26"/><path d="M514.790603,124 C496.753189,110.270557 534.955772,87.9181585 542,100.922681 C540.326252,111.656318 526.835379,123.504704 514.790603,124" id="Fill-28"/><path d="M214,117.896641 C201.869978,125.483499 188.40417,110.967249 185.528395,99.4582703 C185.065357,97.1524737 184.087256,93.9771691 187.090496,92.890284 C202.057274,81.3786379 207.618927,107.259838 214,117.896641" id="Fill-30"/><path d="M698.004548,391.908791 C687.78524,393.445693 682.993717,375.044303 695.41517,375.513013 C704.249826,375.439211 715.669948,366.97136 723,373.421946 C722.664919,384.167312 706.328108,390.424975 698.004548,391.908791" id="Fill-32"/><path d="M620.175606,213 C585.550058,210.396821 634.727473,184.939149 645,197.428115 C644.850797,209.044112 627.258104,210.870007 620.175606,213" id="Fill-34"/><path d="M441.026176,17.8741512 C440.638697,10.1787197 444.533526,-1.26559921 454.01339,0.114044066 C457.53811,1.65444807 463.735095,4.9553138 461.541165,9.51722882 C457.375101,22.7233272 444.01377,45.652814 441.026176,17.8741512" id="Fill-36"/><path d="M778.830773,488 C744.414191,480.962436 783.283923,467.031898 797.925674,478.166606 C806.714344,487.607362 785.123352,485.766328 778.830773,488" id="Fill-38"/><path d="M152.830773,375 C118.414191,367.962436 157.283923,354.031898 171.925674,365.166606 C180.714344,374.607362 159.123352,372.766328 152.830773,375" id="Fill-38"/><path d="M87.6694532,223 C61.1195185,217.973169 91.1047405,208.022784 102.399806,215.976147 C109.179637,222.719544 92.5237286,221.40452 87.6694532,223" id="Fill-38"/><path d="M377.69878,355.721251 C460.807427,419.15431 332.111013,462.562448 363.381047,358.701002 C337.402521,361.66235 324.84687,390.711957 318.236762,413.165893 C316.930006,416.952686 318.585493,420.242635 322.512342,421.094368 C365.218138,434.185815 416.377713,434.920566 443.30242,393.40911 C456.635809,371.140506 420.684877,344.392417 398.839807,348.474951 C390.916363,350.107439 381.015019,345.236264 377.69878,355.721251 M427.22787,329.717115 C440.004604,334.939235 448.972927,356.562469 461.889153,348.142407 C463.763092,346.653189 467.563608,347.199981 470.423206,347.452346 C481.457599,353.48151 463.503846,358.862673 462.802435,364.534319 C487.83478,421.281013 401.559913,456.900003 355.870817,447.499397 C336.124716,441.407142 299.755306,443.277536 305.059974,414.277877 C307.123412,400.142794 266.512637,407.395666 273.899165,392.792656 C285.65734,385.212497 308.720997,395.836812 310.134346,378.119982 C312.500457,370.99855 312.576783,370.897341 305.928513,366.186523 C272.463444,344.446308 296.594351,324.333323 320.848959,351.835878 C332.120225,355.67919 343.645474,340.300683 354.407461,336.425825 C362.026916,329.547557 349.506795,317.880922 356.132695,308.86675 C368.6186,299.742169 366.11826,332.462901 378.481781,328.664279 C389.172705,323.666921 403.945763,329.597504 412.161352,320.60042 C430.417777,292.757435 450.157298,299.55158 427.22787,329.717115" id="Fill-40"/><path d="M459.016458,589.526577 C492.236438,589.218898 476.392028,552.14233 452.140084,556.878475 C432.401173,563.907744 441.453614,587.591095 459.016458,589.526577 M457.466834,603 C437.625054,602.843531 423.390934,587.147986 425.146295,569.715503 C425.694928,552.564402 445.527476,552.268557 455.451664,542.559593 C506.367689,535.425135 503.992479,598.789802 457.466834,603" id="Fill-42"/><path d="M310,271.993107 C309.621488,288.408415 283.786419,297.781399 280.720602,277.253319 C274.603276,254.741729 309.42898,250.670033 310,271.993107" id="Fill-44"/><path d="M332.680186,260 C315.774834,245.284057 362.088259,242.328581 371.055839,238.28384 C374.964852,237.354574 376.662572,238.708794 377.50744,242.320901 C382.897302,255.585345 342.487312,257.411878 332.680186,260" id="Fill-46"/><path d="M54.0261759,532.881744 C53.6386973,525.186312 57.5335255,513.741993 67.0133903,515.121636 C70.5381096,516.66204 76.7350952,519.962906 74.5411646,524.524821 C70.3751013,537.73092 57.0137697,560.660406 54.0261759,532.881744" id="Fill-36"/></g></g></g></g></svg>