<svg viewBox="-20.800000000000068 317.20000000000005 759.2 733.2" xmlns="http://www.w3.org/2000/svg" xmlns:xlink="http://www.w3.org/1999/xlink" xmlns:blush="http://design.blush" overflow="visible" width="759.2px" height="733.2px"><g id="Color/Bottom/Flower" stroke="none" stroke-width="1" fill="none" fill-rule="evenodd"><g id="Group-20" transform="translate(-16.000000, 322.000000)"><path d="M124.0115,644.5653 C142.8895,638.8263 147.1465,620.0513 159.1965,606.9043 C190.8245,574.6763 227.6105,548.2623 267.9835,529.1653 C272.4655,527.1243 277.3455,526.8213 281.3315,530.3493 C296.8925,535.5343 323.9235,509.6263 342.9825,508.2573 C381.1205,508.6893 322.0775,580.3723 309.5595,589.1933 C274.9565,610.6003 247.3825,644.6023 208.4645,657.9113 C188.5765,667.5543 165.8795,670.4133 146.0575,679.6863 C125.8705,688.6673 102.6275,695.0503 81.4975,688.1393 C74.2425,678.1363 88.6935,658.1743 98.3785,653.1233 C103.5265,649.7373 109.0905,647.0543 115.6695,649.4483 C118.2575,650.3913 119.4665,648.1463 120.8465,646.5483 C122.4835,646.6833 123.9445,646.5493 124.1135,644.4253 L124.0115,644.5653 Z" id="Fill-1" fill="#3F5EFF"/><path d="M120.8469,646.5482 C119.4659,648.1462 118.2579,650.3912 115.6689,649.4482 C102.9639,646.2002 89.8359,656.6792 84.7239,667.8342 C82.2209,677.4002 60.2889,682.6022 58.5459,669.8972 C57.2479,664.9392 58.3269,660.3822 60.7949,656.3192 C69.9619,641.6292 70.5759,623.8942 78.0999,608.4702 C100.8339,558.7792 128.6999,511.4862 155.6219,464.0352 C158.6759,457.2722 169.0549,455.7602 170.9539,464.0022 C173.2259,469.1892 180.7009,475.0422 185.0719,478.8592 L185.0359,478.8212 C189.3029,498.7602 168.5699,516.7092 172.5339,535.2982 C174.7739,538.9662 177.9559,543.1932 177.6829,546.9592 C161.7119,580.0402 132.9809,616.3532 120.8469,646.5482" id="Fill-3" fill="#FF3B54"/><path d="M681.3879,703.3641 C681.5159,718.7061 697.6769,702.5631 702.5389,696.9371 C709.5799,692.4701 701.0939,659.9111 695.9529,655.9741 C686.6949,669.2041 682.3129,685.2391 681.3879,703.3641 M661.0739,697.9791 C655.1539,671.6351 686.7279,641.6451 669.7899,636.4631 C649.6689,626.1861 625.8129,642.7141 608.7479,653.2041 C595.4769,662.8211 590.8079,679.4221 583.2209,693.2081 C579.8079,703.4571 562.0049,715.1511 560.4539,697.8851 C561.2859,679.1141 569.2529,660.9401 579.1549,645.1431 C603.5129,616.6181 649.4849,594.2981 685.9399,611.6581 C691.7759,615.6801 697.1629,616.1981 702.4019,610.8871 C708.9599,603.6501 741.2699,590.5861 741.4079,605.5841 C736.7069,615.7161 711.2339,619.8781 718.6219,632.4871 C726.4919,646.4581 729.1579,695.5761 714.8999,705.8881 C694.7599,728.5891 656.5649,743.4511 661.0739,697.9791" id="Fill-5" fill="#42C7FF"/><path d="M363.4319,152.8524 C374.5499,153.2214 386.7089,152.8594 394.4709,162.3444 C406.5949,174.0454 436.4729,200.8454 412.3289,214.6504 C386.8679,221.2764 318.4339,261.1884 299.4629,252.4564 C264.7249,202.8584 308.5739,149.2884 363.4319,152.8524" id="Fill-8" fill="#3F5EFF"/><path d="M64.552,87.93 C63.67,110.139 78.941,116.578 97.228,105.953 C121.316,96.632 70.722,4.482 64.552,87.93 M41.626,87.224 C38.784,62.125 67.163,40.81 43.294,38.389 C30.752,34.785 18.44,34.622 6.466,38.959 C-12.94,30.18 16.58,16.294 26.476,14.685 C65.136,7.391 53.343,31.076 90.993,1.981 C96.414,-5.32 143.169,9.713 121.361,12.444 C112.851,11.626 82.103,18.749 94.011,30.212 C113.542,38.672 117.097,59.252 126.032,76.219 C150.665,128.602 38.221,165.352 41.626,87.224" id="Fill-10" fill="#42C7FF"/><path d="M193.9465,528.1688 C168.6635,518.5188 250.6235,459.9978 259.5355,448.4588 C283.9475,434.6588 376.9735,312.9718 394.1075,337.8428 C395.9575,350.8098 379.6965,358.0978 372.0435,366.4538 C315.2145,423.0908 256.9345,478.2868 193.9465,528.1688" id="Fill-12" fill="#FFC540"/><path d="M182.0925,572.1444 C166.0095,558.5224 269.2605,485.4074 282.2605,470.3314 C300.7695,460.0114 387.9435,365.6864 396.5835,380.8414 C405.2515,405.7094 335.7765,443.3044 319.5035,462.9064 C273.8145,499.5074 229.2575,537.5194 182.0925,572.1444" id="Fill-14" fill="#FFC540"/><path d="M185.0715,478.8587 C193.1595,453.6707 219.5555,440.1797 236.6685,421.3557 C267.5175,393.2157 298.7355,365.4137 327.4365,335.0907 C366.2975,328.4187 305.4645,378.2857 297.7625,385.8087 C267.9925,416.7197 234.1585,443.2317 202.4295,472.0377 C197.6765,477.9047 191.4335,476.9977 185.0355,478.8207 C185.0355,478.8217 185.0715,478.8587 185.0715,478.8587" id="Fill-16" fill="#FFC540"/><path d="M291.2405,519.5257 C275.8295,512.6337 305.2405,494.2077 311.3065,488.4057 C323.8035,482.9627 381.1295,428.6647 387.0155,447.2837 C390.7985,456.5247 390.6115,457.7947 383.1025,463.4997 C354.3665,484.6887 323.1395,503.7317 291.2405,519.5257" id="Fill-18" fill="#FFC540"/></g><g id="Ink" transform="translate(0.000000, 330.000000)" fill="#000" blush:color="Skin-500"><path d="M96.6525,636.4621 C90.5565,642.0491 66.4585,662.7021 69.1325,669.4971 C72.9685,670.8571 76.4385,667.0231 78.5005,664.0811 C83.2675,655.3571 96.6075,645.9141 96.6525,636.4621 M159.0135,470.8921 C157.2465,462.6461 161.1685,449.7461 155.6675,443.7731 C140.9575,454.7971 132.0495,474.2571 122.0795,489.7321 C96.1575,534.3171 70.0835,579.4581 61.4985,631.0781 C57.0895,650.3141 53.0815,676.7591 72.5705,644.5521 C84.7985,625.3111 101.5485,610.2791 118.7355,595.8421 C140.0595,577.9291 137.3435,583.8031 145.0865,555.4491 C150.7685,527.5241 160.3045,499.6831 159.0135,470.8921 M323.3335,509.4921 C251.9275,524.9491 174.3685,558.5181 131.3855,619.4621 C128.6345,626.6721 87.5665,668.0851 100.2155,668.1701 C124.3605,660.9161 150.9145,659.7551 173.0385,647.1051 C203.9265,628.1291 237.2085,612.9011 264.8605,589.1611 C276.6085,581.8011 337.3985,516.4581 323.3335,509.4921 M152.6545,418.6461 C140.6265,363.1041 111.3235,313.1231 89.9215,260.8361 C83.9115,252.1221 68.5235,291.4861 63.3905,296.0051 C45.3065,336.9701 32.7325,379.6091 26.3615,423.9751 C15.0105,495.9921 28.2365,569.7211 40.9875,640.6791 C44.0615,644.0111 44.9435,637.2361 45.2155,635.1031 C48.9945,603.7641 58.8245,574.2631 72.9355,546.2021 C95.1865,500.9751 120.6945,457.4691 152.6545,418.6461 M380.7175,342.1561 C378.3435,318.1881 393.4485,301.9531 360.7345,313.6691 C294.6715,331.6921 228.8775,363.1601 181.0855,413.1561 C171.3135,420.7811 176.0355,431.7811 176.3795,442.3761 C179.8575,469.7551 177.4325,496.6661 170.3215,523.2621 C146.9295,600.5271 176.7355,537.0981 244.7365,515.4351 C265.4015,507.7781 285.8175,499.1841 307.5275,494.7811 C318.4695,489.9371 335.9185,495.8051 342.5775,484.7451 C361.7665,439.1951 383.3385,392.7721 380.7175,342.1561 M223.8745,687.7901 C339.8425,697.8811 474.2425,666.2941 529.9485,552.6291 C526.8815,525.4981 444.4085,503.2171 418.9885,504.1791 C401.0375,507.4841 358.1845,499.8081 347.2265,512.4501 C310.9885,585.9411 240.3335,632.3681 169.1195,667.9401 C157.2565,672.3171 145.5065,677.5131 132.3035,674.7751 C108.3135,688.8781 213.3445,685.6021 223.8745,687.7901 M275.7395,708.5551 C222.0265,706.6251 162.6735,707.3661 109.3085,695.2811 C91.5485,690.1361 73.8545,686.9981 55.9215,693.2861 C43.8355,694.5511 45.2915,684.4541 39.8025,677.9171 C14.0745,643.3401 13.7145,595.5731 6.1335,554.3731 C-11.6425,458.6881 10.4255,357.3131 56.7245,272.6001 C64.0775,261.3511 87.8795,219.5761 97.2485,247.7971 C116.9825,265.6151 122.5115,293.1341 136.4895,315.0301 C141.7785,323.0101 144.3005,332.0911 146.9155,341.1051 C153.9855,348.5331 156.1565,358.3271 159.2135,367.5251 C170.4915,389.0761 160.9195,415.8021 188.4535,385.4681 C243.5365,336.5121 315.7825,312.1081 385.4295,291.9221 C402.7245,288.2241 390.5275,300.2901 393.9125,309.0361 C401.9185,349.3671 400.5705,391.6601 385.0325,430.0781 C384.6625,438.5361 354.7825,490.4091 366.4705,488.1941 C401.5285,487.5421 437.5305,480.9271 471.3105,493.4101 C500.6705,501.3981 527.1055,513.4951 548.9665,535.1191 C568.1265,549.4761 542.4945,560.1041 538.5325,574.6581 C487.5355,668.2071 378.6695,709.7571 275.7395,708.5551" id="Fill-1"/><path d="M683.1207,653.0001 C655.3717,693.9491 676.1247,723.0631 692.0887,672.9201 C694.3457,663.9391 688.9707,660.6451 683.1207,653.0001 M651.4337,635.5661 C637.7677,637.9161 622.2257,641.4451 610.5167,648.4281 C593.3027,664.3351 576.5797,681.5951 568.1827,703.1331 C559.5977,701.5591 564.1507,689.9581 566.6037,684.6971 C582.8767,650.4241 614.5727,620.9771 654.2947,620.9711 C667.9377,618.7541 676.0597,636.2391 684.0537,619.6241 C699.4857,590.6941 756.6757,603.3181 730.6987,618.7631 C716.9427,620.5431 702.8647,623.6201 694.2427,635.4791 C687.1147,641.9201 697.6607,647.4181 700.3677,653.5371 C711.9357,672.8751 695.4347,702.9911 675.1727,709.0581 C655.1627,713.2751 652.8407,683.4881 659.0457,670.3611 C664.3677,653.2601 680.7237,636.1001 651.4337,635.5661" id="Fill-4"/><path d="M187.1027,217.862 C186.0587,210.668 184.5187,187.847 175.7177,188.279 C148.8027,216.258 174.8837,271.083 187.1027,217.862 M162.1157,175.484 C141.0657,162.338 129.6987,168.575 109.4127,170.945 C138.1957,139.141 158.3537,167.917 176.7787,160.793 C217.1397,124.694 245.6657,161.478 216.3477,162.871 C160.6587,171.624 222.0127,196.27 195.1297,241.651 C184.3077,261.441 154.9387,258.016 152.3797,234.506 C146.1427,213.524 155.6557,195.183 162.1157,175.484" id="Fill-7"/><path d="M490.0304,427.5158 C491.3164,435.5418 491.2424,448.6168 499.8064,452.1558 C506.2584,452.4918 511.4974,446.9748 510.9684,440.6128 C513.6444,425.3278 488.7774,398.5868 490.0304,427.5158 L490.0304,427.5158 Z M479.6364,421.1728 C481.1754,392.7958 438.7504,437.4228 431.6614,443.9518 C408.4294,442.7748 453.8024,386.0328 481.6954,392.9008 C495.1654,391.8448 498.3794,372.9788 511.6554,368.3268 C522.3264,361.0358 549.6184,356.8008 549.2574,375.3528 C541.7924,373.6868 538.5094,370.5618 529.8314,374.1998 C521.7684,376.3398 495.5844,390.4428 504.9064,399.9258 C520.3384,411.9198 525.7434,428.0048 524.3914,446.9828 C523.2994,457.4598 511.5574,461.5208 502.7934,464.1178 C481.4524,466.7108 480.1964,436.3478 478.9964,421.2178 L479.6364,421.1728 Z" id="Fill-9"/><path d="M66.6754,82.7657 C83.5954,86.0077 87.0854,65.2807 74.0024,58.3147 C63.8504,53.0247 51.2684,40.5527 49.6304,60.0237 C47.8824,72.1067 56.4264,82.3987 66.6754,82.7657 M67.6124,94.3697 C16.5284,87.6727 49.8364,36.0197 36.3344,37.4727 C-26.4476,36.9547 15.9244,-0.1093 50.6754,22.1597 C64.3454,17.1077 74.9024,-3.6793 93.0084,0.5687 C97.7464,2.0897 93.4744,6.6227 90.3544,6.9417 C83.4684,10.1857 57.7094,27.7927 67.4204,35.2737 C80.8144,44.2567 96.2814,55.0277 92.3534,73.4117 C90.2184,86.9347 81.3654,94.3087 67.6124,94.3697" id="Fill-11"/></g></g></svg>