<svg viewBox="41.60000000000002 197.60000000000002 712.4000000000001 826.7999999999998" xmlns="http://www.w3.org/2000/svg" xmlns:xlink="http://www.w3.org/1999/xlink" xmlns:blush="http://design.blush" overflow="visible" width="712.4000000000001px" height="826.7999999999998px"><g id="Color/Bottom/King of Hearts" stroke="none" stroke-width="1" fill="none" fill-rule="evenodd"><g id="Clor" transform="translate(42.000000, 201.000000)"><path d="M161.424086,438.223201 C191.000126,439.737306 223.884295,439.235898 240.951043,468.108875 C242.572458,469.525415 244.435361,469.49454 245.501108,467.414807 C263.31696,423.367431 312.475652,392.65925 359.61127,400.117393 C395.260223,399.17262 409.496888,428.083882 420.525221,457.532367 C426.345558,475.320018 426.706557,493.374427 420.316999,510.933604 C403.488042,554.859949 398.256638,602.539449 375.394193,644.340366 C363.253294,669.558989 355.439453,721.816619 330.613076,735.128643 C282.470849,747.56876 248.969409,694.675107 210.77991,674.12477 C167.912211,648.095989 121.741309,626.513195 84.7136607,591.987641 C67.9327545,574.855773 72.111964,548.907268 69.2338292,527.029309 C55.1782801,471.533519 110.036566,432.163075 161.362483,439.428557 C161.382196,439.025949 161.403141,438.624575 161.424086,438.223201" id="Fill-1" fill="#3A5AFF"/><path d="M58.0924943,240.278611 C57.8803741,229.198454 59.5600703,214.271173 71.1181568,228.676977 C85.1994874,236.096956 113.367082,264.293614 127.207927,246.701142 C128.057641,235.291372 141.891087,244.273322 142.912224,233.228832 C147.369216,225.618219 153.843816,179.140346 164.234008,186.140929 C165.891506,210.388383 213.569229,273.797041 208.658398,213.604568 C209.537711,219.592945 213.950305,225.886336 218.325902,218.372885 C224.913962,211.102954 260.62909,148.712651 257.048944,185.556727 C257.140205,214.744684 263.718399,242.589591 274.134489,269.724847 C275.555202,278.650222 287.932171,276.903765 288,285.214191 C286.797574,291.111556 279.14768,289.039176 275.093963,291.508813 C238.125846,309.39031 196.391189,304.312059 158.017158,315.477079 C136.681809,323.423455 114.195831,328.236049 93.8569529,338.886972 C85.3795429,343.326906 77.933136,340.522737 73.7844588,332.790364 C61.3248614,304.323128 60.5910734,270.947366 58,240.278611 L58.0924943,240.278611 Z" id="Fill-3" fill="#FF3F56"/><path d="M514.23023,707 C502.427668,704.873838 453.34333,693.60038 467.560727,675.065717 C474.769425,663.144685 474.81387,663.037576 487.711503,668.416384 C501.078275,675.715754 530.959992,681.366641 526.562426,701.244467 C524.108086,706.518628 519.622865,706.758699 514.23023,707" id="Fill-5" fill="#FF3F56"/><path d="M546.356421,554 C559.853335,557.915656 598.117122,577.201432 597.94629,592.978357 C598.380128,596.063196 596.132281,598.733856 593.135971,597.817007 C574.800472,592.205304 554.567392,591.111476 540.138894,576.00068 C530.212235,569.604862 532.351929,554.916849 546.356421,554" id="Fill-7" fill="#FF3F56"/><path d="M50.5220657,588.002073 C54.7977443,589.932787 61.3176255,596.474472 56.0106586,601.638123 C43.6974009,614.915909 16.3066846,639.239972 0.134493102,619.660159 C-2.66205201,607.322664 38.9527287,587.768529 50.5220657,588.002073" id="Fill-9" fill="#FF3F56"/><path d="M86,749.389569 C85.4958454,758.90036 79.4174299,768.199333 79.4969025,777.744809 C81.8872907,784.946651 66.0834103,791.745913 63.6868134,782.56214 C60.1738741,777.085817 53.5515677,772.898987 56.9353639,765.700861 C61.0729084,756.287927 62.4475368,744.308393 70.3662408,737.258912 C79.7787821,730.489378 85.9590219,740.231808 86,749.389569" id="Fill-11" fill="#FF3F56"/><path d="M632.423988,723 C617.075748,719.579037 587.353899,703.552196 601.899722,685.214359 C605.05947,681.135046 608.775793,679.634991 612.836544,682.429597 C621.630677,687.744395 657.075515,719.60611 632.423988,723" id="Fill-13" fill="#FF3F56"/><path d="M617,771.60134 C613.711641,795.917572 592.600573,781.72271 583.113011,771.237145 C575.03244,764.10292 580.113998,756.373761 587.567446,750.675112 C603.78323,733.649009 614.404581,759.18255 617,771.60134" id="Fill-15" fill="#3CC5FF"/><path d="M538.284827,796.971038 C521.422994,798.071921 497.22063,767.467351 520.826203,760 C533.024363,760.271178 541.165588,773.587519 546.291774,783.463131 C547.319995,786.137594 552.116703,787.505924 548.912681,791.629574 C545.481133,796.048037 543.485613,797.135237 538.284827,796.971038" id="Fill-17" fill="#FF3F56"/><path d="M363.15403,801.948774 C348.800468,798.148133 340.896578,781.771444 337.412539,768.300769 C335.139334,761.9505 342.810792,761.423244 346.99091,759.431385 C350.518758,756.699903 353.585395,758.241396 355.2185,761.009494 C358.543123,769.258863 383.36219,803.502472 363.15403,801.948774" id="Fill-19" fill="#FF3F56"/><path d="M507.170849,301.480972 C529.17568,295.945939 492.472764,340.206714 475.037101,330.640998 C453.406189,317.881431 496.005993,300.874359 507.170849,301.480972" id="Fill-21" fill="#FF3F56"/><path d="M71.7867655,108.395332 C69.9333269,96.5954779 75.0612564,84.1610642 88.2917855,89.1190274 C99.457019,93.7634143 108.727929,119.582847 91.3668088,121.785289 C80.7256425,125.16426 67.6400682,121.740845 71.7867655,108.395332" id="Fill-23" fill="#3CC5FF"/><path d="M399,253.286507 C396.763707,263.734636 388.885748,286.168071 375.407354,270.750845 C367.423886,259.365173 374.556011,245.599397 385.578605,239.576025 C396.900747,231.495713 396.824344,244.196155 399,253.286507" id="Fill-25" fill="#FF3F56"/><path d="M535.582566,395.021838 C589.819167,403.214746 526.239735,417.689467 506.980056,413.131756 C488.872099,401.394654 525.193721,394.561828 535.582566,395.021838" id="Fill-27" fill="#FF3F56"/><path d="M586.871913,468.825931 C582.094776,477.827277 568.379728,477.302644 559.926907,473.012067 C555.596103,471.494031 549.676253,470.886817 550.013816,465.010196 C550.531412,443.681185 589.509904,448.107777 586.871913,468.825931" id="Fill-29" fill="#3CC5FF"/><path d="M490.865072,224.072558 C489.962261,236.715873 476.595983,241.692234 467.899968,248.550776 C456.636969,252.73477 468.326774,226.453362 468.254205,221.059835 C470.80151,207.809286 492.922842,209.329841 490.865072,224.072558" id="Fill-31" fill="#FF3F56"/><path d="M659.364089,617.731262 C647.424501,619.282653 646.940481,613.868946 641.004729,607.87471 C632.437193,603.159625 639.186248,593.601417 646.598819,592.07986 C664.934658,590.430265 692.81474,614.850996 659.364089,617.731262" id="Fill-33" fill="#3CC5FF"/><path d="M200.145754,52.8256292 C199.021093,38.8877922 207.882059,39.3384842 218.057565,40.5573446 C228.859911,41.2109725 228.31097,44.909884 227.754725,53.3348364 C226.300212,71.6239678 197.722377,74.2932597 200.145754,52.8256292" id="Fill-35" fill="#3CC5FF"/><path d="M369,156.818398 C368.810942,164.233935 361.669975,185.661286 353.731998,178.588349 C349.614728,170.209561 346.529247,161.433558 347.059352,151.885465 C347.333672,146.938877 353.811081,140.418319 358.932954,140 C366.407554,140.603273 366.253094,152.230546 369,156.818398" id="Fill-37" fill="#FF3F56"/><path d="M439,145.634109 C435.140476,155.665842 409.346564,166.561177 411.083843,147.653667 C414.0883,131.601181 435.020791,128.188362 439,145.634109" id="Fill-39" fill="#3CC5FF"/><path d="M170.12266,91 C160.19216,90.7948703 152.434186,88.6379007 157.700397,77.07356 C162.537708,64.1081214 164.414146,63.389546 175.656934,70.4683845 C187.666138,75.3119312 180.804954,90.4964999 170.12266,91" id="Fill-41" fill="#3CC5FF"/><path d="M551.901759,659 C542.235427,658.807408 534.685576,648.856812 541.808917,641.11921 C547.825803,635.4226 590.762414,653.026009 551.901759,659" id="Fill-43" fill="#3CC5FF"/><path d="M689.191481,720.45709 C688.891457,696.043283 711.521833,708.929065 707.526977,726.894451 C704.246883,740.739877 687.001811,732.037951 689.191481,720.45709" id="Fill-45" fill="#3CC5FF"/><path d="M312.244938,281 C309.028111,279.599809 300.416371,250.334588 308.10758,253.196925 C312.111637,254.248926 316.197435,255.162148 316.808606,260.683607 C318.003284,268.081074 325.504603,279.971541 312.244938,281" id="Fill-47" fill="#FF3F56"/><path d="M84.0613568,0 C93.9025991,0.315643187 98.8345872,17.4888782 91.4384996,21.5897444 C72.8964977,24.6725678 74.2605303,9.68263546 84.0613568,0" id="Fill-49" fill="#3CC5FF"/><path d="M183.054849,170.009958 C188.171918,169.305885 211.685062,206.181127 199.578089,202.778103 C197.806749,197.204185 173.978244,171.116003 183.054849,170.009958" id="Fill-51" fill="#FF3F56"/><path d="M89.3161544,218 C86.6930786,214.007079 76.8439866,210.467238 81.0168946,205.669918 C89.5550613,199.234724 98.0748506,213.134839 89.3161544,218" id="Fill-53" fill="#FF3F56"/></g><g id="Ink" transform="translate(59.000000, 316.000000)" fill="#000" blush:color="Skin-500"><path d="M398.838751,344.854697 C407.19327,251.781623 326.094692,238.902649 263.167933,287.188624 C248.132762,299.687607 232.82602,311.992894 221.561985,328.338668 C218.106858,335.568363 208.136491,334.191513 205.085018,327.350445 C203.890104,324.614018 202.006387,322.775751 199.016635,322.125571 C175.705947,317.476853 156.549065,297.866613 131.675609,301.509836 C90.5128159,303.698484 37.9008264,324.564668 44.6209801,374.158404 C52.0867203,475.49011 201.955776,541.82935 271.627377,605.618457 C288.141377,618.96255 287.098297,621.447295 296.916832,600.136966 C305.287398,581.96773 312.434659,563.271689 321.86065,545.541663 C351.772987,481.792036 401.069339,417.970851 398.838751,344.854697 M425.416934,343.78258 C428.037597,417.071458 382.769141,478.637372 350.427475,540.869503 C331.0879,571.263833 326.810653,611.119688 300.396647,636.508749 C299.216546,637.59197 295.64415,638.268057 295.444175,637.897937 C292.586505,632.63235 287.614282,637.394572 284.062871,635.254039 C244.067834,611.478705 207.671116,580.780876 169.714098,553.432641 C109.682042,508.507364 33.8581182,465.436392 19.6203789,385.186774 C0.731364901,310.350791 87.9847346,262.666879 152.249599,280.770727 C171.099112,282.177187 197.173654,311.430311 208.427813,307.576118 C267.062512,210.540282 437.203126,199.676 425.416934,343.78258" id="Fill-1"/><path d="M41.6074667,122.440112 C41.5345561,122.443819 41.4616455,122.448763 41.3874992,122.453707 C43.4055154,153.522932 51.0524748,184.032296 52.7541333,215.227584 C53.0210602,221.267414 53.8712715,226.024384 61.4094829,223.316532 C123.589841,206.021384 183.910361,180.294943 248.895922,175.194394 C255.85332,173.359086 272.926751,173.453014 270.170979,162.919461 C264.978263,145.620604 258.090068,128.58005 254.611369,110.835035 C249.890719,97.4156605 256.405711,72.1934656 245.470361,64.1144041 C227.674003,85.4410503 217.051304,112.196994 208.614686,138.66003 C200.186719,151.067204 182.974881,133.86104 176.148475,126.026686 C167.475824,121.23264 150.595174,61.1766759 144.26802,83.9666246 C134.044475,100.271819 147.953093,162.787219 118.987824,153.681127 C95.3783935,143.543061 75.257548,127.078435 53.705678,113.366153 C43.3041821,104.272419 39.5461984,111.499948 41.6074667,122.440112 M142.055987,20.8851836 C152.845515,19.6282759 171.432767,26.5530092 164.55693,40.1058605 C160.318231,46.7586964 151.09319,51.8518297 160.816247,58.5652246 C212.558036,144.007758 183.119467,99.2287221 233.966556,47.6806759 C243.211369,39.7907067 246.210589,37.2571169 237.076995,27.0757938 C223.23758,-9.35475487 262.195304,-4.20477026 277.459564,17.8362246 C284.11667,25.8485477 282.139434,34.3935426 275.027564,41.4097323 C263.840117,46.5856708 291.34841,128.644317 294.963044,142.666809 C298.562849,154.677261 313.131369,190.004153 292.33332,190.368743 C237.168442,187.042943 180.809808,207.60704 127.543076,222.151081 C105.699564,226.030563 35.5212878,261.199261 36.2578081,221.513358 C33.9147837,195.008302 27.7915317,169.105127 22.4999545,143.158696 C17.4777756,128.257481 26.2727675,104.412076 12.6681496,94.7016297 C-0.541021138,90.8703477 0.557580488,76.1718195 0.000247154472,65.03144 C1.84649106,41.2861426 32.7976455,52.5278656 37.409548,69.1222605 C38.3635642,80.7026195 42.4786862,83.4327169 52.7528976,87.8683528 C68.5819057,98.5638092 84.2811577,109.452066 99.9865886,120.330435 C105.960312,124.51024 116.534816,136.20183 117.354133,121.539143 C119.906003,100.692025 122.470231,79.841199 132.269906,60.7675938 C134.679662,56.3875733 130.068995,53.1915426 127.613515,50.13764 C117.294816,38.5313272 125.11602,17.0304195 142.054751,20.6182297 C142.055987,20.7084503 142.055987,20.796199 142.055987,20.8851836" id="Fill-3"/><path d="M131,620.421635 C128.062874,639.41129 130.00969,659.796536 122.748253,677.804838 C113.732803,689.524351 104.850061,673.937374 105.340834,664.607133 C105.299519,649.879456 101.805265,591.899552 118.1435,589.284668 C138.277713,586.076781 126.972406,610.838659 131,620.421635" id="Fill-6"/><path d="M60,567.433286 C51.9590996,584.377975 36.4009324,598.53813 25.2648311,613.811852 C21.3480039,619.475668 17.1503523,616.52379 12.3003048,613.175704 C-9.43600122,604.16134 58.2083643,524.971279 60,567.433286" id="Fill-8"/><path d="M474.999099,386.044871 C487.927077,384.876045 548.03212,406.805865 529.473134,421 C508.335754,412.74096 485.579583,412.735975 463.544667,409.517342 C451.593674,407.551023 451.476982,406.871907 455.037328,395.419156 C457.186198,386.80872 469.303539,388.228009 474.999099,386.044871" id="Fill-10"/><path d="M234.920208,660.298212 C230.617408,675.924248 235.090088,693.20382 229.404688,707.000123 C176.862168,660.646909 226.266248,608.30548 234.920208,660.298212" id="Fill-12"/><path d="M423,613.628581 C422.636507,620.722338 415.146095,623.583437 409.341302,621.145112 C335.069284,589.424762 374.16877,543.951962 423,613.628581" id="Fill-15"/><path d="M465.260413,513 C450.488553,508.603821 421.73581,503.482536 416,486.694326 C418.948968,464.453671 444.047742,482.78196 454.342723,489.240195 C462.752378,494.821903 491.356506,510.47629 465.260413,513" id="Fill-17"/></g></g></svg>