<svg viewBox="13 -13 1039.9999999999998 1039.9999999999998" xmlns="http://www.w3.org/2000/svg" overflow="visible" xmlns:xlink="http://www.w3.org/1999/xlink" width="1039.9999999999998px" height="1039.9999999999998px"><g id="Master/Composition/Color Comp" stroke="none" stroke-width="1" fill="none" fill-rule="evenodd"><g id="Color/Bottom" transform="scale(1 1)"><g id="Color/Bottom/Phone" stroke="none" stroke-width="1" fill="none" fill-rule="evenodd"><g id="Group-61" transform="translate(40.000000, 231.000000)"><path d="M263.788173,608.104717 C259.289154,609.023102 235.864867,607.053971 248.111836,616.006695 C272.597132,634.264428 217.03792,644.200699 250.274909,651.95097 C255.358455,652.65554 305.68934,648.413865 295.391513,641.570779 C267.446597,631.639599 291.21447,602.895786 263.788173,608.104717 M303.544635,694.422701 C273.477703,693.941109 242.507511,697.166655 213.803034,686.789519 C197.565941,680.294645 186.265451,697.301053 171.369203,700.80354 C109.226773,713.228206 124.113296,625.594754 120,590.313304 C121.795718,579.678572 140.980296,579.918859 146.650529,587.933853 C149.080475,591.000565 152.154372,590.894676 155.026225,589.655569 C170.136403,583.131169 186.387542,582.84201 202.382614,582.638377 C261.066504,579.037128 318.83741,564.385735 377.845437,574.504258 C406.024812,579.922931 399.657684,617.808847 405.845456,638.301452 C407.085819,649.812824 412.857616,661.423976 410.395256,673.002548 C406.024812,683.308413 393.208442,679.987159 384.263346,683.245287 C361.129701,698.951498 329.97259,694.152887 303.544635,694.422701" id="Fill-1" fill="#42C7FF"/><path d="M263.38331,355 C301.181473,355.480196 333.515414,386.950732 345,418.655806 C344.534569,432.963629 325.80071,434.022082 321.313784,420.701947 C296.182682,377.30334 253.021805,378.075697 207.436585,386.516029 C182.119742,391.209819 168.873863,417.068632 149.002884,430.704179 C146.624975,432.481411 143.689845,434.057465 140.389714,432.089166 C122.895564,413.882152 162.507936,389.081792 174.924463,376.339915 C199.244571,356.669061 233.617337,360.200271 263.38331,355" id="Fill-3" fill="#3F5EFF"/><path d="M532.235082,377 C541.142893,379.506629 556.421846,382.658952 557.722867,394.688538 C566.50422,412.824798 557.062712,424.561996 536.275319,423.979247 C494.388674,421.503075 483.392157,381.276194 532.235082,377" id="Fill-5" fill="#FF3B54"/><path d="M156.828181,190 C151.025402,186.82123 132.787942,189.281017 134.078881,182.230247 C120.773193,174.086581 137.220308,156.637341 142.462463,147.458464 C155.893808,134.939097 170.472176,151.912449 180.805054,160.118949 C185.990288,165.206422 180.567702,170.086853 179.001821,175.223769 C177.206107,184.548915 166.367379,189.866092 156.828181,190" id="Fill-7" fill="#FF3B54"/><path d="M69,336.549824 C58.2889731,358.920439 43.9102177,353.204483 26.0125284,343.060788 C15.8716991,328.098433 22.0189727,311.133873 36.3738341,300.853456 C51.3195288,294.609858 67.7824923,324.261126 69,336.549824" id="Fill-9" fill="#FF3B54"/><path d="M309.712525,187.82847 C283.821786,191.228159 288.616128,143.000145 309.278536,140 C345.415943,143.013361 344.251818,185.583699 309.712525,187.82847" id="Fill-11" fill="#FFC540"/><path d="M552.736293,531 C539.187193,530.310028 523.239022,527.818119 525.157844,512.409767 C529.683265,502.385662 533.855563,481.933942 549.768964,488.156012 C576.784588,497.629782 583.324447,523.342541 552.736293,531" id="Fill-13" fill="#FF3B54"/><path d="M561.839315,583.717729 C567.124102,578.874215 577.102708,571.509588 582.730038,579.626269 C586.112783,584.287374 593.080734,585.667159 594.762805,591.214832 C596.517104,601.84855 588.319064,617.455201 577.489026,621.491633 C561.612777,625.788939 540.89059,601.808808 550.405177,588.469529 C554.801323,584.996628 560.168189,590.35374 561.839315,583.717729" id="Fill-15" fill="#FF3B54"/><path d="M72.2064901,699.978534 C72.6964103,745.493868 4.82304254,697.57249 40.2375803,677.824909 C58.1045589,672.199669 77.1477775,679.577797 72.2064901,699.978534" id="Fill-17" fill="#FF3B54"/><path d="M596,285.017074 C593.308117,300.83905 594.824222,309.396873 576.94274,308.910329 C570.768535,309.853524 560.437939,303.166629 558.366331,297.757944 C558.690191,290.512348 546.872033,282.55652 554.662246,281.005143 C556.370473,280.630958 558.370722,279.616636 557.212509,278.206481 C552.271169,272.191678 558.363037,272.208171 561.478683,271.588651 C577.404927,267.626199 595.709075,265.711976 596,285.017074" id="Fill-19" fill="#FFC540"/><path d="M183.83406,81.5569735 C175.67849,45.1221312 230.184179,64.3133006 223.416538,84.0792591 C219.28845,90.7679945 215.004585,100.170269 206.976666,103 C193.980113,101.284887 183.146045,94.3154406 183.83406,81.5569735" id="Fill-21" fill="#FFC540"/><path d="M577.548813,663.348874 C585.568401,662.433479 594.622081,662.685264 594.996939,672.166429 C595.548454,675.896305 598.617333,679.366243 595.87807,683.714877 C592.041163,694.049255 581.176747,695.2725 573.604188,701.606868 C573.009585,702.517166 570.903703,701.627255 570.682881,701.136938 C569.779129,694.845383 562.381072,701.957531 560.99259,696.901454 C553.409258,681.496727 555.433275,660.533373 577.548813,663.348874" id="Fill-23" fill="#FF3B54"/><path d="M13.13081,215 C-16.7129513,209.917803 10.8287243,174.685843 31.4301432,178.253135 C58.9740123,194.91506 40.3664913,214.2522 13.13081,215" id="Fill-25" fill="#FF3B54"/><path d="M650.728148,458.911694 C641.757595,457.254181 638.438033,449.038061 632.370872,443.667475 C627.435651,439.059304 631.731363,434.505226 631.764046,429.948087 C639.69853,424.607099 655.426957,412.123701 665.065344,421.232876 C674.062044,431.394328 674.361643,437.436493 665.63186,448.231759 C661.493029,453.999373 659.923128,459.787399 650.728148,458.911694" id="Fill-27" fill="#FFC540"/><path d="M522.653691,208.758433 C522.443606,207.944509 522.291998,207.357183 522.139307,206.769856 C520.760757,207.698604 520.483531,208.824482 520.780249,210.336492 C521.433247,209.786763 522.087327,209.236017 522.653691,208.758433 M505.582631,208.384496 C510.653918,201.427015 499.98613,192.569362 508.285585,187.062923 C512.445058,185.117023 515.629909,180.544413 521.801438,182.458813 C529.793345,185.953303 549.651827,182.999397 546.704134,195.51209 C546.255808,197.967074 542.103914,200.173104 546.243896,202.947154 C543.710959,209.477857 536.696923,215.970964 528.055268,215.966899 C523.077111,215.065587 517.947346,223.0768 515.712211,216.161997 C510.244577,212.588248 506.571331,217.645555 505.582631,208.384496" id="Fill-29" fill="#42C7FF"/><path d="M43,621.588614 C45.3368882,618.281028 47.963555,616.849098 51.7756794,616.18758 C54.2453828,614.191834 56.551537,612.183874 60.0936405,613.338985 C70.5673782,615.414114 83.6809544,624.42805 87.1934214,633.929473 C93.5015928,649.190168 61.003589,650.416519 52.4123141,645.240401 C47.3269204,638.948863 46.4916118,629.608239 43,621.588614" id="Fill-31" fill="#FFC540"/><path d="M374.386191,49.133182 C378.066709,62.7900802 360.643109,73.6703499 347.280015,68.8297611 C336.923973,63.8801639 334.340711,36.2115762 350.959438,38.0914565 C359.262231,40.5071232 378.687612,36.0377798 374.386191,49.133182" id="Fill-33" fill="#FFC540"/><path d="M686.727701,666.088668 C689.056137,677.329477 675.913076,682.257113 667.833059,685.826524 C653.441071,688.777223 644.6193,653.062104 664.88016,656.507562 C674.039685,656.962405 689.080029,651.933926 686.727701,666.088668" id="Fill-35" fill="#FFC540"/><path d="M473.063313,673.459873 C471.147515,673.378605 468.712855,677.363893 466.378515,672.823269 C451.92481,655.189021 459.720685,646.336994 480.931462,644 C500.933,644.194836 487.310984,677.650417 473.063313,673.459873" id="Fill-37" fill="#42C7FF"/><path d="M596.180966,441.05906 C610.599599,440.556569 620.154115,457.244092 623,468.664834 C619.504607,481.709813 599.784794,466.876923 590.854337,465.705137 C581.412682,463.205188 587.13322,439.670432 596.180966,441.05906" id="Fill-39" fill="#FFC540"/><path d="M73.9409241,52 C96.682531,65.4109053 90.9277351,92.5957861 63.2214421,79.5469195 C46.858632,64.7291172 57.2710313,58.2990616 73.9409241,52" id="Fill-41" fill="#FFC540"/><path d="M718,732.755191 C717.089183,741.800931 703.612366,753.565899 694.630729,745.060538 C690.119186,740.798681 677.786616,738.178353 683.467496,730.406072 C690.046103,717.86928 713.239755,719.934955 718,732.755191" id="Fill-43" fill="#42C7FF"/><path d="M74.2363333,15.322 C76.2541111,-4.338 105.645222,-4.275 102.957444,17.415 C102.343,29.649 71.0885556,31.255 74.2363333,15.322" id="Fill-45" fill="#42C7FF"/><path d="M316.639376,753.0002 C307.707776,746.8412 299.541896,740.1032 311.986736,732.2272 C316.097216,729.7302 319.628816,724.6022 325.128176,727.5922 C337.755536,735.1252 329.273216,751.0862 316.639376,753.0002" id="Fill-48" fill="#42C7FF"/><path d="M668.001257,606.672709 C667.819198,595.221119 687.479396,592.889956 686.99105,605.398539 C685.70593,621.144849 669.609799,622.765705 668.001257,606.672709" id="Fill-51" fill="#42C7FF"/><path d="M243.219692,22.6378952 C242.293496,9.40016673 259.169169,19.4513082 264,23.0130774 C263.519711,35.808662 240.523839,36.9686742 243.219692,22.6378952" id="Fill-53" fill="#42C7FF"/><path d="M423,120.272417 C421.198508,129.22762 408.253602,128.946136 405.309115,121.188244 C403.642031,117.216308 409.055886,109.062329 413.455945,109 C418.171708,110.356148 420.103442,117.430437 423,120.272417" id="Fill-55" fill="#42C7FF"/><path d="M175,737.266751 C173.186366,743.63004 164.86918,742.910376 161.362112,739.031492 C155.564867,724.7446 169.829282,729.95747 175,737.266751" id="Fill-57" fill="#42C7FF"/><path d="M562,583.906676 C561.197171,585.27282 560.39542,586.638965 559.607698,588 C558.842636,585.942098 558.72178,584.029292 559.699419,582 C560.466639,582.635559 561.233859,583.271117 562,583.906676" id="Fill-59" fill="#FFC540"/></g><g id="Ink" transform="translate(16.000000, 421.000000)" fill="#000"><path d="M200.281964,395.205939 C200.281964,395.188638 200.281964,395.170319 200.281964,395.153018 C190.67601,397.235281 145.365966,390.31883 145.628265,399.0509 C146.959581,427.274417 146.844055,455.295408 155.31418,482.495095 C156.069959,486.236248 157.843881,487.146093 161.970436,487.369992 C212.403583,491.664787 262.572207,495.806923 313.356251,494.588707 C351.460479,493.641206 391.145366,501.719898 427.740195,488.942376 C434.862875,486.482537 426.914237,478.995143 427.2457,474.410297 C428.539162,448.107224 420.161889,423.560743 415.672561,397.943617 C415.87878,385.108084 378.374857,393.087038 368.23122,391.267348 C312.338108,395.175408 256.310036,395.128592 200.281964,395.205939 M145.099284,389.264468 C194.594185,368.731889 247.373487,377.256344 299.623743,377.748922 C327.082281,376.3638 353.678151,375.478381 380.877566,373.745197 C389.437305,371.466513 411.321432,378.690317 412.059936,367.566596 C407.124698,287.566378 390.441412,208.449545 388.201066,128.345519 C389.054017,112.211544 387.855567,103.133447 368.104897,102.35387 C314.041851,94.6283288 259.299683,101.906072 204.909492,98.3694816 C200.699802,98.2544788 196.293609,99.3810991 192.366796,96.7563894 C188.698028,96.7706375 184.255126,98.4600591 180.417927,98.5475833 C170.00113,101.828725 131.719833,93.4233438 135.876619,108.804204 C141.410002,202.224128 138.489455,295.771268 145.099284,389.264468 M449.49368,480.65505 C486.358431,529.983107 285.704449,508.650598 259.431404,513.130618 C237.439309,512.896541 215.585413,510.88959 193.883753,507.583005 C180.511859,505.718535 167.074105,499.54604 153.666582,504.777141 C141.569795,508.988482 140.234226,482.164335 137.546891,474.814333 C114.529095,355.947243 116.936792,232.257158 119.769884,111.552058 C123.290735,72.2221209 189.791748,82.2589133 219.545696,78.2429751 C277.763369,76.6380246 336.312504,74.9078941 393.764681,84.733 C425.247204,88.9290753 412.735819,128.532781 416.746847,149.52537 C418.881383,177.521935 422.28023,205.444206 424.807772,233.402098 C430.621873,298.84174 436.446772,364.568381 447.50922,429.395354 C449.923395,446.82591 453.769231,468.725292 445.957713,483.082322 C447.88711,482.96223 449.364118,482.844174 449.49368,480.65505" id="Fill-1"/><path d="M535.652547,448 C522.996176,444.966874 480.194279,445.03322 498.476539,425.224322 C513.633664,411.21926 583.116356,447.332574 535.652547,448" id="Fill-3"/><path d="M53.2149448,321.977096 C45.2267344,322.461303 -2.38775914,315.223062 10.0645467,304.538704 C31.4472066,293.988571 122.96603,319.578932 53.2149448,321.977096" id="Fill-5"/><path d="M289.683542,587.394418 C288.573125,632.791864 259.022083,566.040793 267.135625,552.525686 C284.721042,530.846346 290.622083,575.406096 289.683542,587.394418" id="Fill-7"/><path d="M446.758824,1.09231515 C451.020457,0.58849697 456.651437,6.60443636 453.406539,9.95807273 C441.33011,18.2757091 416.601824,45.9486182 402.987314,29.3463152 C399.3076,11.5313455 431.963171,2.65734545 446.758824,1.09231515" id="Fill-10"/><path d="M34.0562857,234.251136 C46.9869807,235.321684 64.7762728,230.196092 73.6293323,241.584032 C74.628488,242.765607 73.4640666,244.880219 71.8459744,244.774285 C50.5126501,245.901874 29.1199165,252.278306 7.62132639,249.140002 C-16.375693,233.235592 22.9715984,233.598214 34.0562857,234.476246 C34.0562857,234.40087 34.0562857,234.325494 34.0562857,234.251136" id="Fill-13"/><path d="M503,154.141157 C499.848329,171.830168 473.773755,168.112995 460.684925,176.266286 C450.991524,180.154039 447.913946,167.566722 454.492187,162.523632 C464.920084,153.767556 493.215323,139.875252 503,154.141157" id="Fill-15"/><path d="M509.198671,256 C499.540747,252.622616 443.838729,254.937967 458.418553,238.153665 C469.14767,228.965986 548.385842,251.894337 509.198671,256" id="Fill-17"/><path d="M14.468939,158 C35.931168,163.572053 64.794947,172.473358 75,191.63275 C60.1494195,195.248777 27.026431,171.053877 8.54359844,167.610532 C-2.17618548,163.492907 8.678486,159.769982 14.468939,158" id="Fill-19"/><path d="M157,564.433742 C155.460513,569.265462 154.234965,575.069405 151.752583,580.352261 C134.858143,617.027101 127.28801,580.136324 137.877781,561.957055 C142.97632,550.951359 155.815447,550.982787 157,564.433742" id="Fill-21"/><path d="M43,426.156807 C48.7980167,407.933445 49.6155458,386.8589 69.5080259,380.161337 C78.0162225,378.663414 76.908356,387.976186 73.2725891,392.363254 C66.6046516,400.834726 50.9668155,436.423735 43,426.156807" id="Fill-23"/><path d="M548.657487,552 C535.254764,550.743542 503.572449,545.871418 512.590323,530.286177 C514.753486,527.945812 516.854875,527.400388 519.828682,528.65883 C531.787851,532.702901 542.678444,540.995328 555.605401,541.73413 C560.618823,541.088546 561.593114,548.887117 557.224522,550.130683 C554.002536,551.211614 550.509614,551.618203 548.657487,552" id="Fill-25"/><path d="M398.547886,549 C406.120706,550.480934 413.227709,549.613748 416.017117,556.941061 C419.521729,567.085711 429.074271,577.711791 428.999564,587.971455 C414.948155,588.99335 387.533076,562.322296 398.547886,549" id="Fill-27"/><path d="M145,42 C131.006699,40.4692413 110.517253,22.9289177 102.108993,11.918411 C99.5796074,-19.7385712 141.882946,33.7821895 145,42" id="Fill-29"/><path d="M69,82.427477 C58.9427851,90.8109353 38.2858681,76.3137417 26.9893034,72.8983677 C16.5668065,69.2603371 15.5405379,58.2824893 28.7037373,60.2295075 C44.0923306,64.2677312 59.2417511,70.3883326 69,82.427477" id="Fill-31"/><path d="M483.485674,330.000676 C497.056944,330.541831 510.652058,333.012878 516.40267,343.873308 C518.286304,347.669254 515.456517,350.543958 511.52668,348.087642 C500.369019,342.847961 485.309699,348.741743 475.156716,341.999398 C467.437934,334.681523 475.298693,329.934873 483.485674,330.000676" id="Fill-33"/><path d="M270,25.7073541 C266.888778,32.5933613 268.618386,44.7307516 260.838259,48 C238.970637,40.5219001 263.801377,-0.647394071 270,25.7073541" id="Fill-35"/><path d="M498.440023,64.0103037 C537.879571,68.9054212 500.952708,78.6404223 483.936469,77.9667641 C466.0096,69.0642191 487.196197,63.7331471 498.440023,64.0103037" id="Fill-37"/><path d="M303.077111,211.883522 C297.465805,211.612169 296.197829,213.152197 297.599845,217.366265 C303.652186,232.810082 299.507754,249.509412 298.676489,265.426072 C311.148701,274.966955 330.802865,248.252887 334.236021,237.429153 C334.599226,227.738419 313.218755,211.190965 303.077111,211.883522 M240.283665,214.242671 C220.431683,216.167452 202.37627,225.932101 189.461943,240.042442 C180.818521,247.410479 228.937822,260.593361 235.482004,264.942092 C248.402818,269.550026 235.514433,243.126548 239.344304,236.61712 C239.263231,229.433361 244.46485,220.497958 240.283665,214.242671 M337.343804,207.686667 C365.67382,235.779774 358.654012,241.670559 334.700837,270.791363 C314.609961,290.110057 283.071631,286.514634 256.675468,288 C224.815009,288.017199 196.375816,271.851462 169.902903,257.022238 C158.363567,246.868786 184.652715,229.263259 189.098737,218.737203 C195.995315,213.91968 192.312456,208.790303 186.080674,205.702147 C180.815278,202.615004 165.714151,187.905256 178.075023,186.462429 C191.902769,186.036162 195.769392,210.730273 210.10195,203.410837 C236.550001,197.378301 194.65059,172.177936 213.521053,161.545566 C228.7346,162.283686 225.330631,193.51355 240.984132,192.941482 C279.918447,188.25761 267.766202,189.808775 270.211352,157.994693 C282.608977,142.126634 289.274227,168.239271 285.378418,178.447399 C282.755989,189.591086 287.235521,190.753447 297.033417,189.588048 C304.982858,188.258622 297.710103,174.137143 306.428112,169.041179 C321.466543,159.325132 317.338325,181.659081 314.925604,189.263032 C313.593851,195.339106 322.025403,195.855486 325.913646,198.771515 C327.772911,199.655437 329.427874,199.731375 331.149856,198.079971 C359.552297,171.622068 375.796007,188.648439 337.343804,207.686667" id="Fill-39"/><path d="M286.599206,116.333621 C294.837522,117.654839 310.492044,112.448713 314,121.358918 C313.545903,127.220306 311.598234,129.458308 305.772445,129.64011 C293.695822,130.017323 281.597679,130.081488 269.5146,129.909409 C261.731458,130.664807 249.767822,123.58817 259.880634,117.732615 C268.540766,115.402254 277.694809,116.61167 286.599206,116.367648 C286.599206,116.355981 286.599206,116.344315 286.599206,116.333621" id="Fill-41"/><path d="M234.996691,124.352854 C235.256788,136.667943 220.10246,141.366516 218.085125,127.708691 C216.689485,118.053019 232.887371,115.700226 234.996691,124.352854" id="Fill-43"/><path d="M283.315252,427.620454 C263.362057,432.984116 284.313237,462.415596 299.36202,451.902334 C314.304727,441.890905 294.478174,429.232986 283.315252,427.620454 M281.608287,412 C360.13408,414.119414 311.596531,501.262767 262.032854,455.966479 C250.55928,444.331412 258.423008,430.422443 261.481906,417.695862 C264.631727,411.755646 275.505645,413.632726 281.608287,412" id="Fill-45"/></g></g></g><g id="Color/Top" transform="scale(1 1)"><g id="Color/Top/Pointing" stroke="none" stroke-width="1" fill="none" fill-rule="evenodd"><g id="Color" transform="translate(181.000000, -8.000000)"><path d="M485.222325,189.453219 C504.602042,185.225825 519.818501,217.233735 536.880479,202.06037 C556.437132,182.807325 575.743028,163.301057 595.106341,143.855751 C605.363916,130.886352 620.399924,119.309671 634.944965,133.524076 C656.201839,152.757193 678.203953,171.564756 694.722235,195.242145 C765.524583,271.090212 728.706753,238.317948 677.568859,307.05002 C653.690761,335.966517 691.497555,372.622684 660.464698,400.452438 C650.761364,411.180358 639.586301,419.596458 625.549804,423.690207 C616.876446,426.218905 612.11559,431.878876 611.30942,440.796731 C610.653235,448.039337 608.63781,454.434354 603.00751,459.631257 C598.885263,464.893811 597.825993,473.027382 594.140812,478.757692 C581.303023,501.755135 546.283843,494.621555 534.63539,473.570167 C528.100491,462.419039 527.498207,462.525721 516.280961,469.102448 C508.910599,473.027382 498.375317,482.444645 492.348962,471.651076 C485.593773,459.019305 472.583736,450.314814 475.637339,434.167249 C476.087294,430.908194 473.784788,429.672566 470.506208,430.011367 C439.256575,436.752219 444.58339,418.833276 425.537624,400.908471 C390.161057,420.461632 363.607833,456.082638 322.345522,463.936024 C311.554796,466.416658 310.959543,465.950073 305.113639,456.99705 C290.234647,439.538829 288.455917,433.563503 297.556967,411.900163 C310.006903,385.574498 323.536029,358.987406 345.635398,339.34046 C369.3225,314.714662 397.943878,295.445204 420.930269,270.518119 C428.318207,258.580363 419.849907,242.632093 421.728236,229.264105 C422.451212,197.259712 460.799359,193.569242 485.222325,189.453219" id="Fill-1" fill="#39C4FF"/><path d="M736.660613,66.5113971 C734.726058,86.7442417 720.600179,73.8548049 719.349096,84.2279117 C720.171838,96.6568437 704.423882,94.5669505 700.54892,104.940057 C698.567552,108.53364 693.728239,108.805009 689.682409,107.6373 C674.958492,101.274815 680.040063,102.852514 666.554354,106.914824 C650.169739,98.8136981 659.15436,127.809057 642.093294,117.078824 C628.325536,99.9214942 632.52936,129.490135 618.478382,119.465931 C606.052992,109.559203 590.269926,85.1277757 606.738805,72.6953194 C615.708212,67.7719117 612.967299,52.3614456 627.379909,58.7626981 C637.829783,62.9765524 637.976074,43.4039214 651.66425,54.1059602 C652.582959,23.4459699 671.824349,48.3731447 676.618019,42.0553 C677.273404,35.0701932 674.910508,27.249834 681.869288,22.7023485 C688.252266,18.3087563 693.079876,6.91478544 702.193234,12.1412806 C707.013821,14.8561447 710.951981,15.236766 714.742679,10.145368 C721.190025,-0.130233981 731.323909,15.8112223 738.290882,6.96412524 C747.353915,-4.61075825 758.969437,13.0141252 768.456129,4.83781456 C781.335607,-9.42256408 804.159376,24.2530282 809.703228,35.032601 C814.649041,45.1225913 809.78047,53.5514748 798.511365,54.4948049 C789.54547,54.4630864 781.285283,49.2448146 775.467574,59.677834 C771.916794,65.858232 761.943245,60.7456883 757.06297,63.7342709 C750.275058,70.1778146 743.302234,66.5865816 736.636036,63.2972612 C736.644228,64.3686398 736.65242,65.4400184 736.660613,66.5113971" id="Fill-3" fill="#FFC43C"/><path d="M838.746315,661.517691 C836.57187,678.392235 801.71508,654.439605 791.682611,652.832282 C779.054648,647.512865 766.730451,641.481298 754.123599,636.111431 C747.527549,633.300376 747.038475,633.578431 743.767426,639.750786 C734.794031,650.16788 711.784093,721.276077 695.890944,702.7684 C655.995636,660.33625 656.689957,691.729494 699.227673,614.358605 C701.141747,608.00088 689.454401,605.966502 685.535944,602.446817 C675.850636,596.255691 650.894957,580.685778 649.357364,570.117337 C660.747981,563.736148 692.475636,586.203471 706.401932,589.698518 C726.03292,601.485943 739.363414,536.112487 769.792735,565.829187 C786.645265,577.740975 768.675019,592.731313 762.90113,605.775266 C749.570636,621.79218 826.642611,624.920006 838.746315,661.517691" id="Fill-6" fill="#FFC43C"/><path d="M698.039248,165.545044 C703.97055,130.171037 711.981506,153.042505 725.975433,143.566281 C731.341905,136.033209 737.187484,141.048246 743.130529,144.447301 C752.227697,142.968029 739.073382,130.400056 764.031586,137.720468 C765.913961,132.464727 762.797415,127.804902 761.309599,122.879837 C758.54886,115.708988 767.556783,108.171242 773.971889,112.736422 C788.110253,127.689225 798.211432,113.498259 808.842213,102.895638 C815.795141,96.4726047 822.409876,81.0559224 833.486884,89.436129 C842.237639,95.1195262 849.464174,102.640913 852.688755,112.439632 C856.19986,124.189682 869.230875,168.584212 842.781332,154.931907 C828.263675,140.385728 822.812655,146.046925 808.406555,156.689273 C801.000354,163.593713 800.615189,175.391669 790.788791,180.356463 C781.971103,187.258565 773.439939,185.882118 763.423308,181.78666 C753.916315,177.439983 761.559721,194.26583 752.550624,193.01207 C745.435646,192.105344 746.104987,196.131863 745.742133,200.617587 C745.392197,210.673367 732.613653,216.657059 725.776979,207.407517 C715.930619,193.269132 697.024668,185.108596 698.039248,165.545044" id="Fill-9" fill="#3E5CFF"/><path d="M870.69401,246.89576 C855.628538,310.92642 816.891445,266.80343 813.235246,284.446071 C811.420697,289.341342 803.276434,294.531593 800.651229,287.757578 C796.807684,271.756058 777.523974,262.110665 780.265829,244.706818 C781.57254,239.317572 780.400152,233.238867 786.345747,229.35847 C792.902868,220.185982 798.84375,209.8921 812.337398,215.164291 C820.825718,219.97294 825.053382,205.695652 833.47454,215.262617 C835.563629,217.330992 837.574951,215.573986 838.208865,213.118156 C845.06409,175.752794 874.29483,228.179718 870.69401,246.89576" id="Fill-11" fill="#FF3C54"/><path d="M47.7426809,114.947565 C39.8833012,115.529228 37.523014,111.137676 34.2711412,108.410842 C22.8442415,101.241271 37.3522347,92.0754334 42.8784162,86.1785393 C54.5738516,76.7614239 66.4671554,67.5827901 78.4099262,58.4704659 C84.423712,53.8823123 86.0278593,53.9428052 92.7165177,58.0644655 C110.10538,71.112318 118.935258,81.1262191 96.9859994,92.1859493 C82.4414947,101.931122 64.5709166,110.817762 47.7426809,114.947565" id="Fill-13" fill="#FFC43C"/><path d="M21.7057419,61 C14.7258807,59.0980577 9.89475183,52.3743395 5.11874869,47.2543577 C-2.53317776,39.5268366 4.82083494,22.1757223 17.138513,24.1563251 C47.9761049,26.9892799 58.2682041,58.6742298 21.7057419,61" id="Fill-15" fill="#FFC43C"/><path d="M788.375235,318 C794.667423,320.447165 806.840085,331.695187 801.812451,338.65332 C790.892581,346.575737 801.356035,360.300323 792.132432,363.946963 C784.079278,364.911247 781.838369,352.460222 776.086116,348.271466 C767.840043,337.823095 777.552999,322.423947 788.375235,318" id="Fill-17" fill="#FFC43C"/><path d="M30,261.634422 C28.5724733,267.621088 24.5197593,272.254185 25.2659396,279.068944 C25.387356,283.678582 20.1310872,285.459099 16.5239595,282.666338 C11.8500179,276.957659 -2.8118952,272.906338 0.475777719,264.235994 C5.31593011,249.987167 24.9028692,244.561165 30,261.634422" id="Fill-19" fill="#FFC43C"/><path d="M220.821251,161 C228.162716,161.218591 248.413264,164.503331 241.631593,175.999332 C236.966643,179.94337 232.823001,192.949529 225.508359,185.984 C216.798897,176.984166 193.633921,162.894455 220.821251,161" id="Fill-21" fill="#FFC43C"/><path d="M306.902251,159 C315.690811,160.673891 340.449239,176.187693 332.421149,186.071345 C330.039432,187.879288 327.412778,190.5743 324.377897,187.82217 C319.332202,180.465675 293.270945,167.114177 306.902251,159" id="Fill-23" fill="#FFC43C"/></g><g id="Ink" transform="translate(179.000000, 1.000000)" fill="#000"><path d="M597.472234,436.105247 C597.697338,428.580861 595.203614,423.241163 587.710717,420.512062 C581.907269,419.776402 572.68389,407.868559 568.342441,414.951783 C564.580166,432.966664 533.398648,450.802029 538.053131,466.500811 C542.452028,475.596249 550.444372,479.044584 560.059338,475.497692 C576.570441,468.902561 598.282372,456.42332 597.472234,436.105247 M483.504234,441.00261 L483.737545,441.00261 C476.545959,483.329484 526.096855,437.190552 535.58989,424.117619 C553.153821,402.077139 557.693407,357.125589 521.080097,391.572566 C512.730166,413.113219 478.325683,415.032741 483.504234,441.00261 M434.382441,392.39505 C429.249614,427.134179 484.125614,399.297587 497.0972,388.365931 C504.885545,380.082418 537.092924,347.592509 516.777338,341.395128 C493.243476,342.051004 471.494028,353.037804 450.1772,361.871596 C435.938234,366.990713 434.601683,379.589631 434.382441,392.39505 M433.309683,240.024172 C436.081269,262.492907 433.9932,298.930978 460.145062,310.570135 C464.235614,312.3911 467.519545,310.463364 467.2792,306.027109 C468.057683,282.484802 459.434579,257.825512 462.41251,234.925001 C468.57589,224.484959 480.073752,224.849856 486.674441,234.851083 C493.204786,245.437788 550.433821,282.383898 517.090372,286.220596 C470.682717,258.467308 494.217752,271.100252 484.057614,310.10316 C476.568234,334.822289 445.155752,328.941699 433.368303,310.787196 C424.523614,305.452191 421.982993,271.257474 413.872234,277.219022 C386.695683,305.087294 357.678441,331.073589 333.648648,361.808238 C317.812855,381.617097 303.068579,404.217242 301.025062,430.133139 C311.352855,442.152446 353.268993,399.269427 365.921683,392.790453 C412.730303,364.444648 456.346441,326.446085 513.229614,322.118947 C547.561407,320.754397 534.76451,348.467793 544.518993,355.365636 C596.664441,361.22276 566.424372,385.683762 579.734786,392.26716 C593.128441,391.850638 608.224441,395.29428 616.391476,406.681177 C620.61451,424.277189 631.202579,409.884292 640.796441,405.216896 C664.642166,391.569046 679.33251,381.700402 668.969545,351.679121 C663.193062,333.763971 651.147683,306.989217 671.082234,295.985989 C694.917407,277.829139 718.742028,258.930762 737.147752,235.025905 C742.642855,208.570289 684.307062,187.355814 670.342441,165.975903 C655.806855,149.770254 641.039131,133.752334 621.80451,123.205521 C617.883959,120.641856 616.086648,121.107657 612.805062,125.118004 C589.13989,152.012434 562.680855,176.369013 537.928855,202.172273 C508.0792,225.231179 429.495821,145.226055 433.309683,240.024172 M719.742097,64.2412237 C718.919062,83.3320222 734.536786,103.118589 699.9412,100.838863 C674.506855,98.5028185 656.857338,80.7296382 659.191614,119.127123 C665.3632,132.627137 681.490924,141.628711 690.468097,154.180697 C692.804717,156.379465 695.441476,154.857692 695.374648,151.795374 C692.349821,68.6915585 751.967062,146.30784 753.028097,123.171495 C751.31989,103.179601 766.224786,70.0209098 788.4772,90.5736429 C791.988579,92.6492143 797.399269,103.512819 801.270579,97.69324 C804.133614,85.2433314 802.498097,57.1732518 822.840648,64.75513 C826.442303,66.2158911 829.04389,69.7299309 833.499062,69.63724 C850.053545,73.9397389 839.342372,95.1319215 823.9732,83.9515258 C807.057614,77.8879005 823.137269,142.261121 777.818786,103.34621 C753.397407,108.394929 792.522028,164.639512 719.744441,134.830598 C709.1892,135.629617 716.317476,158.044381 711.930303,165.530048 C704.061062,173.595327 728.965476,194.764043 731.73589,186.779722 C730.589269,169.976863 736.641269,150.487142 757.384786,159.687004 C767.272924,161.374212 786.002234,187.225577 788.813683,166.935664 C792.444648,154.835399 792.565407,122.517966 812.089614,131.00798 C824.560579,139.855851 825.751752,141.979528 830.32651,125.791479 C832.157821,122.280959 836.670441,121.992327 839.392786,124.686228 C850.039476,133.599804 844.13989,148.05958 842.271062,159.658844 C823.338924,188.01873 814.945614,111.190907 798.901131,183.114327 C790.893545,201.167926 770.388028,184.523463 758.608786,179.670685 C747.795614,177.248989 751.717338,201.559809 749.992717,208.78031 C750.011476,218.044704 755.28851,223.389095 762.566855,227.4628 C771.507683,227.556664 768.046717,210.134301 773.163131,204.272484 C788.442028,172.507676 824.258097,245.543385 824.338993,200.666926 C828.100097,157.261788 861.518579,188.73327 856.0692,203.813722 C840.93451,211.663114 844.973476,192.816362 836.935407,221.132835 C820.384441,258.900256 785.842786,188.330828 780.886993,249.212301 C779.774372,253.849191 780.441476,258.003854 784.57189,261.076732 C792.514993,268.311313 795.913821,273.020947 805.742166,264.776153 C817.00789,256.934975 828.146993,248.910762 839.355269,240.988626 C844.872648,235.767432 848.919821,242.420055 853.802924,245.319285 C872.101959,260.769327 823.004786,275.084786 813.793131,283.479762 C800.265821,292.874392 790.533614,284.113345 781.446234,273.812926 C770.956648,270.15457 762.8752,244.156542 753.349338,249.706261 C732.738303,270.92895 711.256166,291.642425 690.477476,312.577655 C713.12851,386.14487 697.993821,403.620032 626.155338,432.239217 C623.2372,433.188418 621.383614,434.860374 621.002579,437.519076 C616.420786,463.736512 595.338441,482.327484 572.867959,494.054638 C530.306993,517.963015 530.649338,469.662861 513.339821,474.30327 C476.167269,499.376737 446.603683,482.666568 456.662993,436.942985 C452.234786,424.205617 423.474303,443.375027 417.240579,421.078767 C410.396028,413.422971 418.140993,389.416036 410.638717,389.78328 C379.213338,407.482542 351.984028,432.307268 320.117821,449.682699 C258.121752,478.734833 284.744924,387.508247 303.415614,361.536032 C331.028303,321.781036 368.647545,288.497975 410.360855,264.100331 C424.005407,258.460268 413.76789,240.911189 415.816097,229.213367 C416.320234,212.06321 422.442579,187.48605 440.413338,181.549142 C461.172097,162.605006 495.238924,176.146085 518.792717,185.148833 C522.369752,186.921692 526.650234,188.955025 529.718441,185.402266 C551.326028,161.672231 574.783683,138.595725 602.741062,122.542605 C617.048028,114.179308 592.722786,106.805104 587.70251,100.57135 C563.789959,70.2673033 663.517821,24.3888443 684.234372,8.24186066 C772.166579,-25.4436429 640.292303,60.9301651 625.943131,70.4515117 C621.266372,75.8428349 601.0012,82.589322 608.403821,90.4774321 C615.750166,92.6550808 642.150579,118.495886 645.312579,108.70468 C639.951131,43.8199005 700.057269,99.4191674 705.490234,80.274397 C700.178028,68.7772096 698.07589,49.6277459 712.534097,44.7362494 C725.381407,37.6788372 750.39251,73.14776 747.926924,47.6695047 C750.942372,-6.43262881 797.493062,57.0570948 790.888855,18.9470691 C790.200648,11.8004859 794.426028,7.34311124 798.819062,2.98781382 C815.940993,0.0404789227 809.028441,31.1939965 807.646166,41.4768162 C801.49451,65.5459356 771.314234,38.2455422 764.565821,46.8470199 C763.639614,95.1905867 749.818028,77.4256194 719.742097,64.2412237" id="Fill-1"/><path d="M653.55458,566.502261 C739.450713,577.931546 717.727874,612.389095 764.908575,560.850816 C767.33107,558.638922 770.367092,556.141473 774.338626,557.28838 C781.64358,566.205001 766.991522,586.089803 761.59506,595.185482 C751.699009,605.566166 826.92984,621.120806 828,636.025923 C822.136367,656.018394 772.733387,622.350806 757.899847,620.23722 C739.365241,605.244329 703.489128,702.464638 687.146358,692.245458 C660.536377,672.661427 737.882941,613.938591 717.416427,604.751627 C709.370323,595.674673 626.023137,578.647778 653.55458,566.502261" id="Fill-4"/><path d="M729.138954,391 C741.420386,396.475667 748.674029,434.251206 761.612328,429.336696 C779.396928,420.551496 797.484787,412.267705 816.254102,405.81968 C835.428544,397.911946 851.274155,406.444098 825.675057,419.021496 C810.281409,427.680172 794.657095,435.932332 779.261105,444.593351 C767.518281,451.199531 766.205717,450.114707 774.89721,462.933437 C782.250379,478.233438 808.2628,507.37256 796.93447,522.994729 C779.359459,523.518397 766.201034,484.878278 754.478115,472.313767 C747.886022,455.640749 735.791933,470.289387 725.543161,474.468185 C713.981825,477.347772 655.072168,526.102761 662.674736,492.36661 C681.618514,474.475214 705.903877,463.41493 727.362719,448.868214 C751.58017,442.424875 703.963717,399.598929 729.138954,391" id="Fill-6"/><path d="M-0.000468246445,183.864373 C31.0032995,129.574215 102.59701,101.235064 155.024224,66.9191123 C181.707247,49.9924548 207.911489,32.0503384 234.310053,14.8870918 C252.741404,9.40689315 247.522797,31.6263521 235.525153,36.3651603 C160.390328,90.4526945 78.2868256,135.66814 -0.000468246445,183.864373" id="Fill-8"/><path d="M704.282446,769.784225 C701.340852,784.909826 724.670934,784.706663 734.181032,790.796832 C739.621399,793.036313 745.72131,789.609566 750.776259,792.756818 C769.682821,821.530691 719.715561,805.948268 707.24044,800.531001 C686.096345,791.860791 699.275528,873.864331 672.662951,859.250745 C654.246068,848.60763 687.153023,794.465495 672.86796,786.548041 C664.623064,781.898798 651.357191,782.617498 646,774.545031 C650.429377,761.640122 675.230841,774.742321 683.608115,769.838245 C688.277646,766.153141 688.309276,756.970915 693.195531,752.843082 C703.643987,748.499169 705.343809,761.970114 704.282446,769.784225" id="Fill-11"/><path d="M307,58.6871856 C252.960506,92.9959348 196.199077,129.327173 141.918414,165.755332 C86.7526828,172.956654 305.48274,18.4884624 307,58.6871856" id="Fill-13"/><path d="M816.533337,804.844258 C815.662411,833.041127 803.612844,836.969458 793.924223,808.388678 C793.257329,797.80003 791.686863,787.217252 790.102406,776.711961 C785.891178,761.03738 759.326168,766.065785 753,753.278163 C757.084144,733.333607 787.297253,761.457686 790.617733,742.20816 C790.737821,735.713382 796.022841,720.3147 803.977771,728.191321 C813.556797,738.531073 807.3752,757.159533 819.309343,764.889399 C829.30343,768.272976 849.600567,783.017718 829.325582,788.45234 C825.454797,789.208421 821.167786,785.071111 817.924255,788.102477 C813.552134,793.492485 816.175406,797.717848 816.533337,804.844258" id="Fill-15"/><path d="M348.919435,18 C386.064234,28.3438367 413.771408,59.8530601 447.263236,78.5165839 C458.465132,86.7521747 473.345824,91.1426989 481.410063,102.96406 C485.432791,113.759914 467.719639,107.452696 463.435145,104.072495 C418.447962,86.8164149 383.183645,55.9285692 347.935762,24.3294096 C344.967136,22.2608758 345.504752,18.6832819 348.919435,18" id="Fill-17"/><path d="M276.855425,137 C244.673075,135.608061 335.919944,69.7377486 341.80786,89.7980507 C343.989874,99.8340502 326.861069,99.9440017 327.150831,109.087523 C312.659213,119.474431 295.287572,134.60563 276.855425,137" id="Fill-19"/><path d="M610.491702,561.575513 C581.066584,551.128281 592.779861,596.335346 578.230429,583.776465 C568.520599,575.541382 586.650561,558.426151 573.680566,553.154623 C567.961142,550.643314 557.76959,549.794915 558.003973,541.81926 C561.012089,534.085503 571.687719,537.64621 577.9772,538.617312 C589.082729,544.554939 589.2594,516.010857 599.509842,526.231382 C604.866502,532.409739 594.470012,542.624421 603.057393,546.183959 C611.087671,546.791628 625.41921,560.738799 610.491702,561.575513" id="Fill-21"/><path d="M439.48097,26 C460.140987,35.4671091 480.207479,51.5383809 495.399596,68.699511 C504.301291,103.879946 410.824734,28.0674209 439.48097,26" id="Fill-23"/><path d="M590.300173,617.399712 C594.59091,617.287927 597.222954,620.422623 598.845205,615.860604 C616.559483,609.848907 608.283651,619.424792 616.082212,630.033808 C621.721298,635.753687 613.83222,649.409149 606.534441,645.992047 C602.811492,643.864596 599.458839,645.243674 596.630479,646.920454 C588.406371,651.405988 579.534537,640.941704 579.047862,633.368541 C578.35194,627.515697 585.396977,619.54599 590.300173,617.399712" id="Fill-25"/><path d="M107.470843,214.918993 C43.1477788,213.518997 104.238873,187.355759 130.652974,198.960005 C148.697947,212.703233 115.982801,215.55001 107.470843,214.918993" id="Fill-27"/><path d="M199.671025,252 C145.135079,249.132992 198.871333,228.075676 221.254512,237.337502 C239.921406,248.925681 207.830693,251.581846 199.671025,252" id="Fill-29"/><path d="M249,208.774596 C260.980338,203.311461 318.940158,192.825784 326,203.833732 C323.450417,208.626198 318.401795,207.559799 314.337038,208.23622 C292.295897,208.932198 270.720239,215.997807 249,208.774596" id="Fill-31"/><path d="M777.641,871.0289 C772.772923,856.5859 781.819077,859.0559 792.035231,860.423264 C797.479077,860.786082 794.880615,866.082991 796.279077,869.757264 C795.819846,877.433173 783.287923,879.498991 778.108308,884.425991 C771.892538,889.154445 759.238308,862.883809 777.641,871.0289" id="Fill-33"/><path d="M512.80619,32 C523.420837,33.1016965 532.155416,50.0156996 529.528713,59.9937531 C519.382911,60.4439086 491.534701,36.4292938 512.80619,32" id="Fill-36"/><path d="M364,119.752293 C367.469591,109.97168 376.453125,105.973748 386.178898,107.221792 C398.83065,114.387567 376.743516,131.72164 368.015526,129.861216 C363.104434,127.875057 367.646149,122.38343 364,119.752293" id="Fill-38"/><path d="M251.713095,277.697875 C239.047091,279.479294 232.173948,273.132917 244.405016,265.23748 C254.02295,262.605271 264.417889,260.804787 274.241535,262.95083 C286.095268,274.186277 256.182342,277.006757 251.713095,277.697875" id="Fill-40"/><path d="M485.499439,134 C492.09081,136.737408 502.410058,135.558869 507,140.881069 C500.888972,146.905789 485.562093,151.739858 477.411349,147.229191 C469.027395,136.721662 477.79307,135.235467 485.499439,134" id="Fill-42"/><path d="M108.560007,273.204464 C140.736851,273.469893 106.693183,289.994654 93.7847599,286.520162 C84.0121371,278.450875 102.637346,271.72906 108.560007,273.204464" id="Fill-44"/><path d="M643.696838,247.190841 C628.843635,267.319618 635.376087,263.000782 646.473159,282.355826 C650.18822,306.289961 633.275658,290.839924 626.429901,280.447285 C614.712088,274.613808 607.913269,302.073117 596.452435,305.427132 C594.330884,306.498635 592.210507,306.060186 590.514909,304.16923 C567.685942,286.293657 613.095109,272.891667 601.613154,255.589359 C595.954903,247.349105 589.313323,239.236633 584.279333,230.750191 C588.36989,204.510097 612.178665,253.885975 622.328784,246.977478 C629.071279,243.117021 640.821948,234.542654 643.696838,247.190841" id="Fill-46"/></g></g></g></g></svg>