<svg viewBox="317.20000000000005 -20.800000000000068 774.8000000000001 650" xmlns="http://www.w3.org/2000/svg" xmlns:xlink="http://www.w3.org/1999/xlink" xmlns:blush="http://design.blush" overflow="visible" width="774.8000000000001px" height="650px"><g id="Color/Top/Cloud Rain" stroke="none" stroke-width="1" fill="none" fill-rule="evenodd"><g id="Color" transform="translate(430.000000, -18.000000)"><path d="M279.8518,175.227 C281.5538,185.568 289.9288,205.774 276.6758,212.951 C252.2988,228.048 241.1388,226.516 215.9108,214.642 C205.2268,212.078 211.3878,200.313 204.6728,194.47 C204.9158,181.492 187.4748,174.06 193.8948,160.524 C200.4858,144.954 212.8398,135.152 226.7058,126.733 C236.4948,122.624 241.4878,138.17 251.9208,137.73 C266.5708,138.139 260.0358,151.233 268.8838,153.807 C281.3848,155.636 282.3658,163.874 279.8518,175.227" id="Fill-1" fill="#3BC5FF"/><path d="M408.2434,115.1703 C406.9794,130.5953 403.7994,145.5563 399.7764,160.1673 C391.5034,182.0343 355.0274,175.2573 354.6654,151.3143 C341.8544,94.6393 395.6744,14.4143 408.2434,115.1703" id="Fill-3" fill="#3BC5FF"/><path d="M512.7902,167.3236 C522.8082,165.9586 538.3312,176.5516 535.2892,187.8816 C527.2302,209.7596 496.4372,247.4086 479.0202,212.9586 C470.6452,193.7546 491.1872,165.3326 512.7902,167.3236" id="Fill-5" fill="#3BC5FF"/><path d="M87.3772,122.1645 C87.4412,129.2295 86.7112,133.5575 81.1362,135.5965 C74.8042,141.5315 68.2932,149.3405 59.4672,142.6565 C33.6232,126.1915 63.5722,81.1535 87.3772,122.1645" id="Fill-7" fill="#3C5BFF"/><path d="M216.8996,21.3964 C217.3336,27.0224 215.3466,31.5004 212.1706,35.9944 C210.1256,40.0294 207.4226,37.4294 204.8486,36.9544 C195.2336,36.9734 184.8726,34.0074 187.9816,22.5554 C191.2446,15.4704 192.5676,-0.5176 203.0646,1.1164 C213.2096,2.9564 217.4536,12.4114 216.8996,21.3964" id="Fill-9" fill="#3C5BFF"/><path d="M15.5598,279.5595 C-13.8612,278.8305 5.1858,238.3445 17.8578,250.6245 C32.0408,257.6325 34.6308,277.6185 15.5598,279.5595" id="Fill-12" fill="#3C5BFF"/></g><g id="Ink" transform="translate(320.000000, -4.000000)" fill="#000" blush:color="Skin-500"><path d="M605.7663,184.2831 C605.6553,192.5631 607.9373,197.4401 615.3293,190.2611 C624.1083,178.7761 626.4733,165.4711 625.6953,151.3971 C618.1333,142.6491 603.5013,176.9101 605.7663,184.2831 M510.4243,118.9771 C509.2823,99.9931 504.9403,79.3031 487.6863,67.9661 C486.1053,66.7171 484.2083,66.3001 482.7673,67.7931 C461.0403,87.5201 459.5103,124.7401 477.8563,147.1441 C483.4673,153.6131 490.5163,153.4161 497.8703,151.5121 C512.5733,147.6281 508.7023,131.0981 510.4243,118.9771 M320.2903,150.2821 C318.8653,184.6501 347.8683,215.5251 382.9193,203.8881 C408.4203,190.4371 382.3673,141.7231 361.0333,133.2931 C333.2053,123.6421 321.2333,112.0031 320.2903,150.2821 M471.2903,57.2711 C434.8543,33.4311 380.8493,33.0471 349.7523,63.4641 C344.9983,71.7251 323.2373,103.4691 334.0703,109.2851 C352.8973,114.3331 372.9613,118.6611 386.3523,134.0731 C427.3683,182.1781 402.5943,240.5511 337.5633,212.4841 C313.9523,200.9741 303.7483,176.0621 304.2163,150.8841 C301.8663,143.4501 310.8043,128.1091 302.0843,124.9701 C260.7263,124.0711 229.5073,155.2691 211.4653,189.7771 C201.2483,209.9041 206.1393,233.5561 205.7833,255.2771 C207.3293,267.0911 208.2323,292.8801 224.1643,292.2931 C286.5103,289.8241 349.1063,289.7721 411.5143,287.5131 C472.7943,283.4691 534.3163,286.4711 595.5733,282.1381 C608.5863,283.2261 674.0803,272.7571 676.1613,281.9771 C676.6133,291.0951 685.7683,290.0121 692.3743,289.8971 C706.5343,287.7961 724.7163,292.8521 736.9073,286.3881 C738.2643,273.8081 749.9953,265.1081 748.9343,251.9501 C747.1083,212.6121 727.6213,174.2421 698.6473,147.8871 C690.1843,137.7531 645.3893,125.1971 642.8693,144.1941 C640.8363,158.7751 642.6933,174.6081 634.7053,187.6791 C619.4953,213.3471 587.6503,220.9831 593.3503,181.0931 C602.6863,123.2391 647.3153,154.0171 621.5773,68.8291 C603.3823,39.8701 560.6623,13.2271 527.3073,32.8781 C517.9463,38.5631 509.6263,45.5741 500.7473,51.8581 C495.4393,55.9101 504.3313,60.1821 506.6523,63.3671 C533.0803,89.1001 539.8313,166.3431 489.6773,166.9261 C441.4013,159.6311 442.7923,86.0521 471.2903,57.2711 M461.7873,310.2211 C414.2283,310.5851 366.6813,309.8201 319.1323,309.0001 C292.2453,308.7051 265.3523,308.8211 238.5093,306.7871 C227.3383,305.8941 215.0723,311.3241 206.9613,300.9581 C182.1573,271.2401 179.3013,200.9841 204.3003,170.8021 C222.6913,144.2551 246.9483,117.1111 280.5673,111.9981 C290.5313,108.3801 307.9933,112.4921 313.1763,101.8371 C318.1203,87.0241 323.9063,72.4321 332.9683,59.5861 C360.7283,20.2011 419.8533,14.7711 461.5683,33.2601 C470.3113,35.3021 478.2303,44.3671 486.9813,43.2411 C510.7443,26.1971 534.5633,2.4911 566.3783,10.6251 C620.7743,28.2601 648.4953,62.1651 644.9233,120.4311 C653.0863,129.7611 683.0963,113.5781 704.7903,133.9741 C737.8033,159.7521 757.2953,198.9461 765.8473,239.2261 C773.0273,260.4451 756.8613,275.7441 757.1643,293.7271 C759.6483,301.8131 752.5773,306.3741 744.9983,304.9801 C726.8333,304.1811 708.6833,303.9131 690.5753,306.0361 C614.3323,308.0921 538.0283,307.7641 461.7843,309.9201 C461.7853,310.0201 461.7863,310.1211 461.7873,310.2211" id="Fill-1"/><path d="M215.487,57.4062 C210.656,64.3692 208.53,68.9852 201.125,62.9512 C184.385,52.1232 168.667,40.0822 157.081,23.4162 C145.66,10.1902 152.079,-9.9198 169.273,5.6682 C185.925,21.6552 201.033,39.5252 215.487,57.4062" id="Fill-4"/><path d="M51.6638,94.2421 C61.7618,97.3041 130.1738,133.6171 105.9398,143.8391 C96.0488,140.0131 18.9618,103.8041 51.6638,94.2421" id="Fill-6"/><path d="M18.2546,200.5516 C27.3486,201.9566 92.4326,201.2766 78.3346,217.1716 C62.6916,209.7696 6.4946,230.2646 0.4976,211.0486 C-2.7074,198.8956 10.3186,201.9346 18.2546,200.5516" id="Fill-8"/><path d="M481.5134,376.6464 C482.4734,371.9964 483.4864,366.2984 484.8444,360.6854 C487.2474,347.0854 512.1504,325.3054 512.7584,350.9504 C511.1674,369.1914 482.2264,427.8904 481.5134,376.6464" id="Fill-10"/><path d="M249.6296,371.7616 C251.0926,359.4616 252.4486,330.3366 263.5846,326.9776 C268.7816,330.0586 277.7586,329.9886 276.7806,338.5036 C274.9296,353.0146 256.6376,420.2536 249.6296,371.7616" id="Fill-12"/><path d="M603.5974,387.247 C605.0094,374.329 612.4634,331.638 630.3424,347.192 C645.9914,358 619.1164,384.991 614.9734,398.351 C608.6224,410.326 601.5874,393.528 603.5974,387.247" id="Fill-14"/><path d="M42.2741,344.2753 C38.4061,343.7403 23.9531,339.7663 33.5881,335.6703 C49.3401,328.6033 66.9041,306.5873 84.5191,310.9193 C98.4851,325.7333 53.8981,343.4653 42.2741,344.2753" id="Fill-16"/><path d="M562.4196,431.6493 C552.9696,447.7323 548.2106,462.8903 543.3736,480.2173 C528.5096,492.1563 530.3996,444.7733 537.8976,438.4533 C543.2986,430.4993 554.4566,422.6063 562.4196,431.6493" id="Fill-18"/><path d="M413.9968,447.5995 C413.7088,440.1365 418.4668,423.0405 430.5688,424.7965 C453.5128,432.7835 428.7448,461.9425 420.7438,474.0075 C411.5478,481.1645 415.8178,455.1495 413.9968,447.5995" id="Fill-20"/><path d="M365.406,386.3329 C362.415,374.7889 382.324,327.3709 395.371,350.8959 C393.403,359.6689 365.213,423.3699 365.406,386.3329" id="Fill-22"/><path d="M597.6599,524.0663 C597.8869,532.3713 581.5309,569.4083 572.6009,561.4283 C576.4939,548.4753 573.8219,515.3023 589.9439,512.8323 C595.8359,513.7013 598.2109,518.1103 597.6599,524.0663" id="Fill-24"/><path d="M292.1296,457.5419 C290.9046,446.7329 314.3196,413.6579 316.6886,437.4639 C322.8566,449.2819 307.8526,460.8379 300.1196,468.2829 C293.6556,472.9959 293.4946,461.0169 292.1296,457.5419" id="Fill-26"/><path d="M451.5652,548.1063 C448.5832,528.8863 474.8852,508.1533 475.8972,534.9093 C469.6942,545.9833 455.2852,579.3503 451.5652,548.1063" id="Fill-28"/><path d="M479.4323,620.4706 C474.6453,604.0866 495.8293,583.2836 500.2053,597.6196 C498.0733,605.0136 505.5093,607.2516 503.2883,613.3576 C499.8193,618.5406 478.3523,634.7756 478.6533,620.5056 L479.4323,620.4706 Z" id="Fill-30"/><path d="M649.5427,468.2245 C646.9987,456.6995 664.6857,430.0795 674.1387,445.1945 C679.4597,453.8705 648.0637,492.1045 649.9947,468.2435 C649.8447,468.2375 649.6937,468.2305 649.5427,468.2245" id="Fill-32"/><path d="M356.3532,526.2802 C357.0242,520.4352 356.9682,509.1342 366.2862,510.1472 C370.6762,510.2642 374.2412,513.0462 374.4382,517.2482 C374.7632,536.8032 356.6032,565.4262 356.3532,526.2802" id="Fill-34"/><path d="M423.4392,601.7216 C442.0172,603.5476 420.5702,628.0536 413.2772,629.9596 C400.9612,625.7966 412.0282,599.9026 423.4392,601.7216" id="Fill-36"/></g></g></svg>