<svg viewBox="0 197.60000000000002 759.2 842.3999999999999" xmlns="http://www.w3.org/2000/svg" xmlns:xlink="http://www.w3.org/1999/xlink" xmlns:blush="http://design.blush" overflow="visible" width="759.2px" height="842.3999999999999px"><g id="Color/Bottom/Robot" stroke="none" stroke-width="1" fill="none" fill-rule="evenodd"><g id="Color" transform="translate(7.000000, 284.000000)"><path d="M53.296716,487.405193 C33.8893087,491.038623 7.44925207,482.519119 4.14407249,462.614019 C2.17200501,434.534972 -11.4792837,386.184942 24.7907496,373.681368 C57.3954147,369.07987 41.6768362,388.996404 64.2500397,397.105559 C95.3863494,410.835098 129.371048,416.489782 162.987277,422.688211 C180.799366,425.78552 198.256786,431.39701 216.848594,429.308423 C221.827754,428.749433 225.958193,430.815153 229.587681,433.799393 C249.839668,456.898354 244.998512,491.340986 247.271426,519.47212 C250.497944,544.677454 252.308548,569.945039 251.956639,595.343479 C249.375977,618.143889 258.64842,678.561735 228.075164,684.18974 C218.558455,687.306106 213.837361,699.478097 202.96822,691.116126 C188.401969,685.099368 189.608118,667.693205 175.16607,661.455393 C143.898657,638.435199 100.884402,644.155946 69.0442751,622.450647 C54.4725043,602.999091 28.2021918,602.874589 26.3156863,585.80636 C44.5818061,549.489844 53.8307888,576.301001 84.6814316,576.240021 L83.9306936,576.543654 C103.683109,577.77216 121.445517,589.190786 142.312999,580.10721 C159.560655,576.190474 176.374979,571.742698 190.230513,560.885602 C220.298677,543.704305 189.790282,480.579172 176.477102,458.447008 C160.151309,438.620675 72.9552893,476.235571 53.296716,487.405193" id="Fill-1" fill="#FF3F56"/><path d="M228.680619,433.72155 C225.044608,430.715432 220.906745,428.634569 215.918635,429.197656 C197.293411,431.301555 179.80323,425.648927 161.960508,422.530191 C132.447988,414.755749 59.8521936,409.815938 48.081472,381.444021 C39.3384553,371.976478 41.8546303,360.646907 55.8083411,358.566044 C69.7316365,357.171123 81.0917516,350.352649 93.491517,345.868427 C116.673507,337.607682 139.167005,327.725501 162.252218,319.228003 C176.818383,313.681594 187.390465,328.101746 184.754011,338.927098 C186.11164,347.70358 189.765624,350.154289 201.651094,350.570205 L201.579203,350.470385 C194.734378,359.422192 230.368668,367.268301 237.372483,365.355084 C238.701079,376.737124 250.17456,366.72313 256.859013,368.184597 C261.505642,378.221627 271.939473,371.554162 280.346539,371.144644 C289.082643,370.488136 292.63432,380.498291 301.198993,376.070378 C319.856015,371.483776 321.429316,369.592315 315.55225,352.49494 C324.013234,327.666633 385.12034,369.065061 398.487864,379.012508 C416.265608,390.699127 406.669581,403.381387 389.805678,405.830816 C348.12289,412.479085 307.18113,421.855767 266.923713,433.850804 C254.385696,439.453522 242.14492,432.147465 228.680619,433.72155" id="Fill-3" fill="#FFC53E"/><path d="M53.1514864,487.166477 C69.6031794,475.792725 80.7442278,479.305319 99.0943521,480.282097 C111.467933,480.304931 123.269366,485.455213 132.42099,491.662191 C146.410375,505.834347 146.67508,524.556764 145.628668,542.786987 C145.362584,571.977416 108.255628,574.954685 84.0254672,576 C84.0282245,576.002501 84.505245,575.869304 84.505245,575.869304 C63.8720399,574.874767 40.7696332,567.12651 38.4493283,545.698292 C36.3358241,524.574524 33.7053179,502.343318 53.1514864,487.166477" id="Fill-5" fill="#3CC5FF"/><path d="M257.447567,368 C236.001917,359.285036 234.610313,371.901045 206.413004,357.734294 C207.185514,354.560239 207.666127,351.499498 203.162758,350.375274 C192.199627,310.187131 199.213315,264.561206 219.304017,226.547666 C226.555296,216.612989 234.69313,190.470643 250.8629,197.047926 C253.213015,198.223078 255.226429,200.52118 253.366431,202.913498 C246.43556,211.828353 245.957662,222.738291 242.532278,232.704798 C237.898573,248.04288 221.413825,296.090406 233.579846,307.368295 C244.798218,311.470503 246.487151,319.637997 245.429531,329.599411 C242.955869,338.804552 252.989,338.083928 259.733872,340.472427 C275.632109,346.119011 271.65144,363.352868 257.447567,368" id="Fill-7" fill="#3CC5FF"/><path d="M503.800179,349.001989 C531.008993,350.402037 520.238174,385.088221 498.688228,376.690527 C495.153339,375.061027 492.289982,371.860362 491.067379,368.248757 C479.834103,358.14119 488.692786,348.843836 503.800179,349.001989" id="Fill-9" fill="#3A5AFF"/><path d="M431.231262,537 C393.370798,532.721048 425.649863,494.024947 454,524.778528 C448.107987,529.577488 438.00266,535.84501 431.231262,537" id="Fill-11" fill="#3A5AFF"/><path d="M615.975428,529.245698 C616.746039,548.426725 599.217429,543.944326 587.803806,537.270027 C569.336882,522.920282 599.38652,506.536646 615.975428,529.245698" id="Fill-13" fill="#3A5AFF"/><path d="M291.267634,543.963794 C273.110079,544.785588 260.557082,531.418081 283.160203,524.178216 C308.419349,521.923817 329.020448,541.761489 291.267634,543.963794" id="Fill-15" fill="#3A5AFF"/><path d="M201.200859,13.4085218 C198.104339,-7.85260372 231.817444,-0.662907616 233,13.14344 C229.029892,26.546967 203.176343,28.5571712 201.200859,13.4085218" id="Fill-17" fill="#3A5AFF"/><path d="M270.960899,98.0038442 C280.884394,97.7186652 291.9174,113.383319 279.431267,117.356897 C273.18958,118.633893 269.557451,126.853609 261.55628,122.963314 C249.77532,115.288718 258.547905,99.404502 270.960899,98.0038442" id="Fill-19" fill="#3A5AFF"/><path d="M432.133539,503.729147 C392.312068,504.113897 442.729518,464.504234 451,493.808859 C450.093354,499.789368 439.490281,505.517711 432.133539,503.63556 L432.133539,503.729147 Z" id="Fill-21" fill="#3A5AFF"/><path d="M295.545521,514.942872 C280.568299,516.049982 269.758935,500.772392 286.34861,494.572317 C306.962375,490.022463 327.242091,514.068151 295.545521,514.942872" id="Fill-23" fill="#3A5AFF"/><path d="M626.255306,696.367071 C623.7016,711.562929 597.7064,701.578071 600.3216,688.4265 C600.4476,682.887643 605.7942,681.924643 609.4986,679.625786 C620.2198,674.632071 626.2846,688.769786 626.255306,696.367071" id="Fill-25" fill="#3A5AFF"/><path d="M131,293.101652 C130.980432,306.944539 104.338251,310.284653 104,294.616414 C104.272558,277.738912 130.856034,278.361365 131,293.101652" id="Fill-28" fill="#3A5AFF"/><path d="M83.0029965,58.1355791 C82.7384642,43.5051751 100.054941,41.4573595 108.654317,50.1959166 C121.688418,70.045073 93.1300121,74.170533 83.0029965,58.1355791" id="Fill-30" fill="#3A5AFF"/><path d="M210,736.201283 C213.263078,730.911147 219.705634,716.522529 227.541954,719.36903 C234.127039,721.719503 237.514829,728.910664 235.346753,734.438744 C232.305691,739.611797 228.016135,748.445897 220.094846,743.590101 C215.070721,742.674839 212.380498,740.576158 210,736.201283" id="Fill-32" fill="#3A5AFF"/><path d="M369.548605,207.141411 C384.408806,210.146111 374.562242,231.803565 361.605794,230.976945 C344.766193,227.086581 348.39299,205.035497 369.548605,207.141411" id="Fill-34" fill="#3A5AFF"/></g><g id="Ink" transform="translate(0.000000, 198.000000)" fill="#000" blush:color="Skin-500"><path d="M264.643484,395.697777 C289.404157,394.276829 257.970493,371.748116 255.024409,389.166515 C254.819512,393.473962 260.657687,395.886387 264.643484,395.697777 M193.679963,616.781964 C186.191538,593.80339 180.886372,558.645446 155.621764,547.536565 C150.103394,549.833021 131.536696,548.405701 134.983947,556.439472 C161.289653,579.517449 176.285885,619.143414 154.757874,648.942538 C152.962258,651.597098 149.07891,654.971689 152.163438,657.710359 C177.562336,665.941661 191.762516,635.719439 193.679963,616.781964 M101.216121,653.057551 C151.435223,655.041781 148.346542,616.218683 126.345054,586.739432 C119.780049,572.526131 101.610686,574.928361 88.3574609,570.256437 C64.0231949,563.49451 48.7376155,591.199806 49.8396281,610.058269 C55.5158237,631.076827 75.1471539,654.537121 101.216121,653.057551 M310.723117,392.812552 C310.558369,392.812552 310.392236,392.811278 310.227488,392.811278 C323.135988,235.67484 210.568722,276.984278 206.685373,400.593994 C207.366517,434.356478 200.484476,425.249669 236.126831,437.764204 C241.102501,439.364842 245.096604,438.972329 244.030587,433.50391 C242.331882,401.250306 220.493757,370.225217 242.691836,340.090928 C245.369339,334.057953 258.327678,333.553294 258.938215,341.246802 C258.443971,350.289892 240.591643,374.242102 260.890273,371.217969 C276.444433,368.992879 300.546113,387.573524 286.60067,399.844651 C277.773493,407.793038 254.847201,399.718486 254.447098,414.035013 C255.405129,423.279458 254.488631,439.897538 266.434947,442.674439 C323.224592,442.617092 309.355292,437.460899 310.723117,392.812552 M340.045513,425.888139 C346.848641,490.53553 230.878426,466.511954 193.973464,447.411357 C159.887217,409.002437 209.152442,398.363807 119.886651,428.699449 C110.345105,434.16532 51.3417433,443.51299 57.9150547,452.752337 C118.489753,471.845287 183.163772,485.76293 239.507628,513.935928 C245.464865,517.886545 251.481632,522.340548 259.177723,518.605303 C283.557675,508.614064 308.653382,500.382762 335.033847,496.198931 C345.450359,493.336645 461.211523,474.72414 436.367784,463.320875 C404.348503,450.387064 376.132273,430.863368 345.641411,415.230393 C339.098557,412.662492 340.541142,425.029199 340.045513,425.888139 M41.6783663,573.438596 C77.7402062,549.839392 128.85504,524.765717 172.900934,532.136804 C201.918753,550.906059 213.138239,587.372805 213.444199,618.665517 C203.776669,680.788336 152.192511,670.911793 101.594072,671.792398 C73.5273615,680.118005 50.5858401,645.843215 47.0084524,655.122068 C46.3840709,664.676189 43.839474,676.079455 56.6026075,679.361016 C86.8816501,695.503748 117.276985,711.464241 147.382973,727.878419 C173.25535,743.044966 199.454454,757.690286 226.700193,770.692915 C233.748366,756.682242 226.751417,738.25325 230.87012,722.822903 C238.401462,674.176787 235.807026,624.96484 237.937676,576.000125 C234.734086,563.3059 247.821178,545.498811 237.33683,536.179178 C176.488012,504.957832 106.42853,490.838836 40.691262,470.138876 C35.6809811,468.753611 33.9158227,473.654925 34.5402042,477.497219 C41.8998764,509.12637 31.1829422,542.792001 41.6783663,573.438596 M471.762325,584.01478 C471.575425,584.017329 471.388526,584.019878 471.201627,584.021152 C469.310485,553.754327 471.010575,523.479855 471.662645,493.199011 C472.804806,480.50606 456.198473,487.786665 448.654671,489.038119 C413.196446,500.861934 376.061666,506.638756 339.407287,514.346283 C316.515605,519.125255 293.716681,524.281448 270.820846,529.04003 C257.305963,531.527644 260.778133,546.574398 259.503066,555.989611 C278.18744,835.475391 150.406586,774.042019 424.696972,728.974397 C439.431545,722.687818 468.424445,724.956237 473.802986,709.295225 C472.850493,667.525731 470.863824,625.819957 471.762325,584.01478 M501.516665,597.918404 C499.336175,628.747237 500.553096,669.355759 497.367505,701.614461 C495.707563,708.479614 507.915537,704.906217 505.739201,710.875472 C500.518485,717.992955 499.85534,736.476746 489.022113,736.002672 C420.143555,749.911394 348.56396,768.699765 278.338344,783.032859 C265.508758,784.136483 252.352444,796.015097 239.88558,790.586184 C232.44561,788.626168 223.067428,791.55982 216.019254,786.542536 C175.740416,767.25078 135.467116,747.864719 95.9552564,727.27818 C77.3940967,713.444648 29.9826344,699.679933 25.7587142,678.510996 C26.1338969,625.728201 -16.2285201,460.857474 40.9127721,435.508529 C83.0162993,416.153054 128.24035,403.725177 172.298703,388.842819 C186.677476,382.98571 181.139724,362.061457 189.136238,350.524381 C200.739212,319.445767 219.499731,288.187464 252.464583,272.922788 C287.309502,253.350666 322.705427,286.020996 330.652101,316.510841 C335.7053,334.771613 337.884405,353.41088 339.011338,372.176312 C339.422516,377.644731 337.647666,384.916415 344.558781,387.462652 C489.382066,464.605463 493.968709,435.434615 501.516665,597.918404" id="Fill-1"/><path d="M489.181515,382.203429 C518.734148,391.175803 589.636457,375.630867 597.953309,409.917925 C598.56048,414.827797 593.120786,418.928758 588.914752,416.041804 C557.268761,401.350647 518.993576,407.771939 486.039409,395.554948 C475.269037,392.333405 477.282358,380.297168 489.181515,382.203429" id="Fill-3"/><path d="M562,546.712002 C561.526831,564.506944 543.880259,628.592791 521.179197,599.56069 C519.305835,581.590447 532.641468,564.693761 536.915161,547.313399 C544.963167,512.823943 556.759277,514.505294 562,546.712002" id="Fill-5"/><path d="M651.091692,546 C664.071723,547.763028 754.609364,559.52207 721.935539,579.860589 C705.781879,582.357363 571.333681,550.54897 651.091692,546" id="Fill-7"/><path d="M111.406318,349.626419 C93.0451673,344.153844 26.8665615,339.636053 22,323.563218 C33.078576,306.543206 98.8482967,327.407714 117.713647,332.546812 C127.568331,339.199871 126.108224,352.382994 111.406318,349.626419" id="Fill-9"/><path d="M663,733.443054 C663.074715,741.235229 652.270823,750.077458 645.487793,743.955127 C625.290302,722.831099 584.65749,721.463466 572.052486,693.165771 C571.316742,688.208744 578.497547,686.597807 582.223554,689.303619 C605.658875,706.340117 653.448848,705.121029 663,733.443054" id="Fill-11"/><path d="M484,310.51992 C476.758268,325.28997 428.253839,386.327031 410.749538,377.044346 C401.880141,373.251572 407.342476,363.751174 411.76476,358.72979 C425.823375,348.05171 466.781231,296.064344 484,310.51992" id="Fill-13"/><path d="M124.339866,204 C111.821824,199.471519 8.78999153,200.71204 28.4969145,181.271641 C43.2121762,175.448758 203.00228,190.767341 124.339866,204" id="Fill-15"/><path d="M151.924187,114.483122 C135.715811,109.52038 86.3731924,97.637037 89.109418,77.9722348 C106.242872,67.611949 140.743835,87.2392682 159.398652,92.613073 C175.105479,98.3254737 170.790769,118.46381 151.924187,114.483122" id="Fill-17"/><path d="M221.57472,146 C251.244249,151.02716 183.212496,205.744012 171.361688,188.733389 C167.079106,169.69242 201.849886,146.260593 221.57472,146" id="Fill-19"/><path d="M107,779.43844 C97.7488929,790.250221 67.9315961,835.564229 51.6960072,822.731269 C39.1081166,812.017246 100.506875,748.442805 107,779.43844" id="Fill-21"/><path d="M130,257.063102 C123.580681,276.55323 120.674307,305.337337 101.570032,316.791939 C71.1503473,322.197309 122.291377,220.162032 130,257.063102" id="Fill-23"/><path d="M671.51348,430.025015 C683.436441,434.033111 673.370527,445.419 665.426953,447.992914 C642.878477,455.655004 621.18253,476.152396 597.143166,474.949205 C593.511976,465.432831 660.057545,428.909398 671.51348,430.025015" id="Fill-25"/><path d="M462.404295,817 C447.543282,815.390788 436.245509,815.182447 424.961461,807.850882 C411.853243,810.85713 397.528912,794.802076 400.361934,783.412331 C401.771582,781.025994 404.102237,782.187847 405.695812,783.104293 C418.217935,790.320823 432.590306,792.245742 446.442467,795.637997 C455.807636,796.183774 478.458087,813.407073 462.404295,817" id="Fill-27"/><path d="M297.438298,151.883977 C272.636537,147.487904 265.32251,73.5740026 297.392972,104.571029 C294.433023,117.063774 320.3858,154.342011 297.438298,151.883977" id="Fill-29"/><path d="M758.952149,771.804846 C748.595441,790.585179 721.563149,798.474675 704.44279,811.887722 C701.174599,814.651435 695.166649,811.864476 696.096633,807.912625 C708.723229,790.476697 728.337953,777.128222 745.049788,762.886061 C750.321559,759.494701 759.752466,766.566706 758.952149,771.804846" id="Fill-31"/><path d="M176.163138,218 C194.168535,219.784703 219.477599,231.323909 222,247.996054 C210.371021,258.350145 140.189993,225.584989 176.163138,218" id="Fill-33"/><path d="M658.146465,654.787031 C660.651815,642.8967 658.212508,619.907623 670.655987,614 C689.818687,614.612143 676.812401,658.182451 675.11106,669.777528 C664.278471,684.446046 656.851435,664.567316 658.146465,654.787031" id="Fill-35"/><path d="M521,816.338168 C524.795193,802.980334 538.010498,769.490024 556.008577,772.149689 C570.884626,778.631977 525.683046,846.426279 521,816.338168" id="Fill-37"/><path d="M398.622923,171 C415.604638,176.506111 448.397344,173.318431 454,192.502893 C449.661837,204.760606 357.276617,181.691767 398.622923,171" id="Fill-39"/><path d="M33.6402185,743.90219 C22.0233694,744.769559 -17.364375,739.916602 8.80260217,727.404418 C43.5747047,714.856728 92.2945905,740.804261 33.6402185,743.90219" id="Fill-41"/><path d="M299.267,824.931577 C292.9628,812.050891 326.2184,784.334663 331.8436,804.00392 C332.2104,819.965863 298.2016,864.760377 299.267,824.931577" id="Fill-43"/><path d="M569,327.090743 C553.224421,352.26744 537.399277,289.503483 537,278.896262 C549.099475,262.819115 566.805352,318.527735 569,327.090743" id="Fill-46"/><path d="M436.628404,251.745519 C434.997924,300.117756 410.070773,261.732207 412.119619,237.978084 C414.495134,222.113997 440.383667,227.621473 436.628404,251.745519" id="Fill-48"/><path d="M144.000914,795.272274 C143.932783,791.028726 147.677226,782.867379 153.34186,787.261854 C161.624683,797.417945 187.885837,813.227489 180.800178,826.293945 C163.579636,831.17893 146.224221,809.622862 144.000914,795.272274" id="Fill-50"/><path d="M60.0714738,273 C48.4711935,272.839133 -3.59421353,262.359213 21.981022,248.2552 C33.0545208,245.354356 90.8521409,268.037961 60.0714738,273" id="Fill-52"/><path d="M59,407.324459 C43.2745955,429.460469 22.1572253,365.913196 45.1351445,364 C57.9190964,373.009577 53.6819541,393.33825 59,407.324459" id="Fill-54"/><path d="M309.152345,231 C315.424222,232.30916 349.118706,233.85777 335.990145,245.391656 C320.237523,246.962388 304.040449,250.360219 288.411668,245.426792 C274.007541,232.802373 298.585924,231.596019 309.152345,231" id="Fill-56"/><path d="M53,128.408453 C51.2650602,158.925375 17.8253094,87.8372252 32.8881314,84 C50.5905201,86.1227478 50.0674658,115.18876 53,128.408453" id="Fill-58"/><path d="M47.4826378,21.5739625 C27.8280432,16.64815 10.7467459,15.3448375 40.9966919,5.8594 C50.2709622,-1.6179125 59.8614486,2.8183375 69.4153946,3.5008375 C87.3947459,12.16465 57.0267459,21.96115 47.4826378,21.5739625" id="Fill-60"/><path d="M172.053873,297 C218.587161,301.620007 160.441297,315.882792 156.022267,304.995785 C155.460725,299.072063 165.648699,297.3755 172.053873,297" id="Fill-63"/><path d="M344.138135,697.726579 C333.628565,696.095561 309.36848,705.938569 307.10922,693.991673 C305.485982,690.044355 305.000669,684.744177 310.224344,682.924769 C351.348687,674.982087 394.020222,675.817826 434.910896,665 C476.885572,693.34053 360.796377,698.53071 344.138135,697.726579" id="Fill-65"/><path d="M433,576.149432 C430.695897,592.64296 431.822561,647.855685 403,620.530222 C404.516399,608.900482 399.993276,539.01815 418.572938,546.56908 C436.347056,553.040022 430.944284,562.185279 433,576.149432" id="Fill-67"/><path d="M341.993032,603.244014 C348.856301,631.080544 318.71548,643.34026 309.635831,614.435577 C307.951994,602.797263 308.477584,558.366391 325.741433,561.122834 C338.946552,571.567702 342.011108,588.764463 341.993032,603.244014" id="Fill-69"/></g></g></svg>