<svg viewBox="0 67.60000000000002 806.0000000000001 972.3999999999997" xmlns="http://www.w3.org/2000/svg" xmlns:xlink="http://www.w3.org/1999/xlink" xmlns:blush="http://design.blush" overflow="visible" width="806.0000000000001px" height="972.3999999999997px"><g id="Color/Bottom/Selfie" stroke="none" stroke-width="1" fill="none" fill-rule="evenodd"><g id="Color" transform="translate(12.000000, 69.000000)"><path d="M170.655743,838.79191 C189.753069,844.364833 197.46449,878.723971 213.497996,883.087787 C229.415936,868.971028 200.542755,852.332341 193.561502,840.385674 C204.565249,847.757161 213.2209,841.516012 223.403864,836.455089 C231.941322,832.293448 241.131466,838.019971 248.950575,833.209797 C271.831382,821.299889 295.456804,811.197735 319.482767,801.893776 C330.573189,796.450823 341.613707,784.488402 353.44743,795.278474 C355.054852,796.460012 355.547322,801.001058 354.677948,803.322125 C351.842635,822.579889 342.70502,839.041346 329.190334,853.43511 C324.702948,858.574802 319.996249,863.532012 312.894177,865.881961 C294.789671,871.443069 297.284852,896.244874 289.645659,910.482412 C287.595671,928.847458 324.959033,931.809182 287.385551,953.251479 C270.813611,966.571356 225.47749,926.521141 172.77796,938.473058 C152.037755,938.694925 115.531948,945.046351 108.716165,919.454228 C106.739719,909.269366 99.1241651,900.947397 99.8280687,890.003725 C95.085912,882.506207 85.7670687,880.85993 85.602912,869.229653 C83.6750566,858.918761 66.8036952,868.012669 65.7701651,853.030761 C64.5160084,844.633961 72.164394,836.445899 61.0818518,831.392853 C58.9635747,830.320279 56.8676229,826.28073 57.153912,823.886146 C58.4343337,813.155151 49.4057193,805.891315 48.391888,795.945387 C33.5206108,782.368197 21.7840687,764.68713 34.7156711,744.56553 C43.3555627,730.421202 54.8136952,718.794864 68.9639964,710.046228 C104.93531,679.330166 105.609008,732.479705 138.441647,729.499602 C144.981647,729.149079 140.004418,732.663499 139.099587,734.576279 C125.272346,738.311253 116.048057,744.490699 123.772611,759.89271 C122.984659,763.572546 120.190057,770.592197 126.435888,770.437284 L126.405683,770.349325 C123.423286,776.480197 123.423286,776.480197 129.490514,780.88471 L129.419599,780.765243 C125.303864,795.803602 146.213478,808.755889 149.44802,823.915028 C151.765912,829.973694 160.608045,833.75593 168.163189,833.012874 L168.108033,832.928853 C168.375936,835.148833 167.514442,838.573982 170.655743,838.79191" id="Fill-1" fill="#FF3F56"/><path d="M123.834328,759.426889 C118.658228,746.274073 120.06392,742.29263 132.296069,736.283029 C148.461528,723.709499 178.120318,807.891201 194.235855,799.699753 C239.537238,787.220801 284.751916,774.504091 329.475258,760.069227 C351.352819,753.845513 373.164693,747.468111 394.47735,739.464505 C402.085166,735.286026 409.017724,744.270872 406.458576,751.77138 C400.7872,773.898533 326.110793,778.9952 300.679589,795.326866 C258.234257,811.985611 209.476447,823.466247 168.426297,837 C169.42736,835.878208 170.428423,834.756416 171.429486,833.634623 C170.348285,833.257628 169.267085,832.880632 168.187198,832.503636 C171.162799,828.840078 167.37794,826.17615 165.2405,824.067864 C151.739287,814.74543 140.450397,780.547845 129.484685,780.311402 C129.484685,780.311402 129.555626,780.430937 129.555626,780.430937 C132.686247,774.149426 132.365697,773.055219 126.469672,769.889506 C126.469672,769.889506 126.499888,769.976201 126.501202,769.977515 C130.000981,765.352421 126.731105,762.4376 123.834328,759.426889" id="Fill-4" fill="#FFC53E"/><path d="M212.040568,491.399331 C242.379335,487.393126 264.238265,514.394185 285.020536,533.695025 C300.694236,546.882712 295.406439,588.563172 272.614753,563.396059 C263.164222,550.423899 237.592583,523.362753 221.391674,524.158247 C181.904574,522.379163 142.775924,540.823116 123.031066,575.600156 C116.567185,584.236942 121.598572,616.806455 103.384323,605.727021 C89.9280448,586.187142 96.895587,558.01962 108.105664,537.724741 C130.244552,501.734214 171.283193,492.883207 212.040568,491.399331" id="Fill-6" fill="#3A5AFF"/><path d="M95.926033,701 C59.2575076,691.788884 19.1845517,530.738388 10.1200107,491.098892 C3.81691358,464.978152 25.8300522,454.259691 33.5197522,483.581896 C50.7405505,530.326696 65.1580847,578.089547 83.2688704,624.496312 C89.4569618,640.106411 96.127293,655.536312 103.09298,670.811006 C109.730639,682.344959 104.003877,692.150595 95.926033,701" id="Fill-8" fill="#FFC53E"/><path d="M366.556981,646 C360.782361,644.275941 355.690125,642.986851 355.766383,635.620058 C346.603513,619.866273 380.486017,599.880107 369.566568,597.263703 C360.629844,599.190747 357.019392,590.389875 350.187669,588.284889 C345.558243,580.919414 346.495699,570.133502 339,563.359848 C344.578714,540.724326 375.959146,539.518276 394.933086,534.268332 C407.887852,529.902825 424.700253,537.012591 415.775362,552.422356 C406.555955,570.298263 380.923847,579.292894 374.524695,597.258431 C376.865046,599.76148 381.293307,597.959653 383.869008,596.491304 C398.179337,587.640344 416.310487,595.855985 432.240655,597.06599 C446.698242,598.398577 438.209866,617.571482 428.926034,620.514772 C407.994351,628.975578 388.62334,640.622202 366.556981,646" id="Fill-10" fill="#FF3F56"/><path d="M411.84143,688 C401.537655,685.36074 393.104661,683.282111 388.256677,673.437891 C380.427544,657.539892 379.957875,655.569227 396.479174,649.086195 C420.349413,642.462679 459.930541,618.029034 474.096918,650.355745 C475.111245,652.936471 475.621697,654.796571 473.700922,656.836176 C468.942398,661.887062 463.985219,666.681697 456.908609,668.452044 C440.84777,671.789817 427.332615,683.616408 411.84143,688" id="Fill-12" fill="#FF3F56"/><path d="M634.784985,769.874421 C622.348991,771.645286 590.49226,754.297802 604.482591,742.404012 C612.651652,736.155501 613.953229,735.141914 622.569178,740.327648 C632.322541,745.576812 662.019096,769.175396 634.784985,769.874421" id="Fill-14" fill="#FFC53E"/><path d="M743.526433,816.904865 C734.130349,818.246429 710.060819,805.104396 720.631291,796.093949 C726.80347,791.360228 727.786884,790.592359 734.296712,794.520945 C741.66592,798.497585 764.103317,816.3753 743.526433,816.904865" id="Fill-14" fill="#FFC53E"/><path d="M408.026203,816.404753 C407.292513,804.13972 422.149074,801.93327 429.659533,808.985795 C437.392203,818.544459 453.163904,844.138489 429.459675,842.960668 C417.540503,840.864149 407.577837,828.357009 408.026203,816.404753" id="Fill-16" fill="#FFC53E"/><g id="Group-20" fill="#FFC53E"><path d="M47.7793421,192.199 C47.2530263,199.672162 43.3596053,211.173919 46.6753947,219.415189 C48.0556579,222.955108 45.1082895,224.909811 41.4701316,223.439811 C26.3556579,218.627216 22.3898684,199.942324 24.8122368,185.964081 C30.0490789,172.649324 51.0003947,170.788649 47.7793421,192.199" id="Fill-18"/><path d="M23.6265954,16.1914076 C23.1002796,23.6645698 19.2068585,35.1663266 22.522648,43.4075968 C23.9029111,46.9475158 20.9555427,48.9022185 17.3173848,47.4322185 C2.20291114,42.6196239 -1.76287833,23.934732 0.659490092,9.95648873 C5.8963322,-3.35826803 26.847648,-5.21894371 23.6265954,16.1914076" id="Fill-18"/></g><path d="M579.488404,897 C572.156011,892.133306 549.286048,892.942178 552.266211,880.78621 C554.234831,866.723133 572.140448,864.762189 581.527054,872.448497 C587.089246,877.460546 586.197013,885.411992 586.99717,892.261164 C587.129449,893.391702 582.595659,895.109042 579.488404,897" id="Fill-21" fill="#FFC53E"/><path d="M702.205341,912 C696.548922,908.308025 678.90638,908.921653 681.205363,899.699884 C682.724012,889.031342 696.536917,887.54373 703.778013,893.374722 C708.068847,897.176966 707.380553,903.209098 707.997817,908.405021 C708.09986,909.26267 704.602365,910.56548 702.205341,912" id="Fill-21" fill="#FFC53E"/><path d="M257.045107,338.625561 C255.733232,323.986729 283.42895,312.764211 288.970446,328.954805 C290.11115,343.949758 257.856536,360.078065 257.045107,338.625561" id="Fill-23" fill="#FFC53E"/><path d="M429.109305,308 C460.335034,310.702845 408.24261,343.528174 401.570266,327.711475 C397.953285,323.248301 397.97959,318.775939 402.764527,316.900093 C411.854331,313.333492 421.271635,310.600455 429.109305,308" id="Fill-25" fill="#FFC53E"/><path d="M212,208.886458 C205.973731,224.634284 192.495696,206.061155 190.749891,196.787924 C186.272213,187.158697 203.20215,167.250915 205.765929,185.30805 C207.982929,192.910633 209.839914,200.619882 212,208.886458" id="Fill-27" fill="#FFC53E"/><path d="M562.277878,612 C578.117819,620.034763 569.261888,625.783044 560.213379,634.227115 C544.113524,644.924307 530.405417,621.90937 562.277878,612" id="Fill-29" fill="#FFC53E"/><path d="M689.458408,698 C701.338364,704.10642 694.696416,708.475113 687.910034,714.892607 C675.835143,723.022473 665.554063,705.531121 689.458408,698" id="Fill-29" fill="#FFC53E"/><path d="M504.287332,477.007061 C514.63975,487.141872 492.640535,500.236208 483.882602,497.674648 C468.646253,485.581854 492.909327,476.713894 504.287332,477.007061" id="Fill-31" fill="#FFC53E"/><path d="M119.950265,374.8087 C121.338608,392.937802 93.1172986,372.238272 103.169318,362.493199 C112.479223,351.622996 118.990116,369.072873 119.950265,374.8087" id="Fill-33" fill="#FFC53E"/></g><g id="Ink" transform="translate(0.000000, 147.000000)" fill="#000" blush:color="Skin-500"><path d="M291.992186,570.389944 C280.504887,575.541014 300.979849,589.429075 306.391352,585.510953 C309.061657,577.987214 298.9699,570.09451 291.992186,570.389944 M284.528724,604.20344 C285.441143,586.94611 273.143825,592.560683 266.226502,599.99251 C260.196654,608.17277 283.575606,626.258631 284.528724,604.20344 M197.747756,624.060597 C197.325023,614.517397 186.515146,614.585675 179.142269,612.713275 C170.263571,628.620797 195.925542,651.440179 197.747756,624.060597 M246.631138,625.17931 C246.008855,611.711423 244.484654,610.495544 233.140453,614.72617 C228.961702,616.573623 221.015117,616.471205 221.336761,622.607057 C223.111713,635.457814 246.959347,641.220762 246.631138,625.17931 M410.425587,467.770344 C393.273408,469.496997 360.077082,477.513127 362.885234,498.176492 C368.283609,515.064857 371.959544,521.163944 384.906716,504.962301 C390.159365,497.677536 429.553582,472.879397 410.425587,467.770344 M439.428721,519.580414 C425.097822,521.012944 411.175216,525.21337 397.286742,528.857066 C372.294317,536.472718 374.431611,535.936997 384.192534,559.061005 C385.553943,562.284527 388.070646,562.901657 391.537841,561.416605 C401.230496,557.287083 452.198659,530.070318 439.428721,519.580414 M457.078464,559.699144 C437.850694,563.44657 418.542841,570.066936 400.189419,577.091718 C389.676242,583.38251 406.172004,596.750605 408.613876,604.647249 C414.925983,613.157083 429.209619,596.866153 438.614764,596.705962 C456.569084,590.887866 496.353213,569.367083 457.078464,559.699144 M298.780852,599.334675 C291.599649,647.667805 273.227847,613.682301 264.681296,629.717188 C263.283127,662.222892 226.238884,648.106362 206.969103,646.823518 C199.816782,651.157875 191.933213,651.40604 183.935427,650.813857 C180.134772,650.532866 177.21109,651.819649 175.01078,654.959136 C166.289622,667.401536 155.021566,676.871205 141.42848,683.613683 C134.268282,694.309736 168.02125,737.499675 173.016584,752.662701 C184.899047,763.950936 207.095135,748.115631 221.642651,746.361405 C263.365836,737.159597 303.181472,721.705075 343.197972,707.076457 C438.354822,674.000892 406.854678,692.892962 370.046745,601.837336 C349.43656,561.465188 336.537964,516.89524 323.275713,474.074266 C308.409178,444.912883 296.631742,412.156388 284.533975,380.546179 C240.69844,286.51651 276.327448,297.804744 165.412649,329.829875 C135.256847,342.702953 29.6629642,376.761988 27.2591647,408.457544 C33.2719455,437.63731 43.4385337,465.623518 51.6949481,494.13757 C60.3347102,530.473423 79.2526513,563.17477 87.1060257,599.735153 C90.0126406,611.228223 91.0130203,627.670153 106.83136,619.223344 C133.866555,608.319831 180.267368,627.114736 159.470761,601.822892 C157.73782,598.868544 159.422186,595.805214 162.739718,595.287875 C189.017408,597.111692 214.495582,608.410431 239.614039,593.55991 C264.875595,582.807397 265.713183,575.161544 277.486681,553.49764 C314.492852,533.825623 351.688071,606.362083 298.780852,599.334675 M289.068504,830.020657 C275.424218,764.506353 318.01256,798.218744 337.537031,751.492779 C340.429205,745.320162 351.677568,721.649927 336.243889,730.234605 C316.417467,737.732083 295.922812,747.734849 275.938849,751.789527 C267.71263,760.316431 234.780183,760.378144 234.033181,772.890136 C244.040916,781.820144 256.579796,812.947153 235.378836,813.725788 C223.756314,810.890927 226.036707,798.042797 221.95248,789.355701 C209.170726,757.734988 186.568972,798.913344 167.720611,788.184466 C136.673395,762.493457 129.282138,717.789579 111.293683,683.964266 C97.8331941,658.652727 139.200601,659.800327 150.677397,645.459266 C170.006256,619.399292 98.4738572,642.004649 89.5203278,647.686188 C26.781293,671.913153 71.4176567,729.706762 92.1748786,768.872223 C104.923812,786.860918 149.424953,901.292657 100.347272,834.75024 C80.6061834,783.464075 -5.50261337,688.395788 53.9110123,643.575049 C59.0546968,636.701266 78.5857316,633.871657 73.2319936,623.305597 C39.2676594,568.331092 23.7552102,506.004857 6.32602299,444.499275 C-3.70140481,414.254631 -1.54573102,379.069005 32.8885979,367.162327 C91.9989588,337.066057 153.444852,311.067797 218.403889,296.587553 C241.797282,293.357466 273.955157,277.54711 285.869127,306.947466 C309.634052,361.450588 330.17597,417.314023 353.074424,472.226814 C359.839459,481.299944 371.334635,462.519483 379.290411,460.148127 C398.409216,444.23404 451.90721,446.57651 433.955515,481.670223 C432.079475,488.797423 411.150272,500.986405 418.705633,506.79137 C442.928737,504.472536 484.34078,501.309414 452.798625,535.444605 C449.899887,539.759266 443.449932,541.534501 443.709873,548.094466 C466.41009,544.55844 503.556734,559.724092 485.836098,587.182457 C472.072344,602.858883 451.920339,611.295188 432.978766,619.103857 C415.083523,626.083997 418.118796,624.757823 424.67509,641.248336 C429.856847,654.334127 456.276322,683.633379 434.4859,691.14924 C410.443967,694.346501 391.445943,709.745875 368.36763,716.269075 C358.118333,720.834527 369.73429,739.860527 365.123617,750.636675 C362.664678,773.61231 347.753507,795.358936 326.153445,804.346718 C307.592595,806.819179 326.737657,857.312266 322.570721,874.727162 C296.986207,927.003362 287.590253,852.794083 287.819999,830.125701 C288.236167,830.091562 288.652336,830.05611 289.068504,830.020657" id="Fill-1"/><path d="M221.455706,247.72863 C202.357831,244.967679 250.070689,177.178714 262.506854,188.213333 C271.19904,201.154636 239.894439,252.154813 221.455706,247.72863" id="Fill-4"/><path d="M479.133745,717 C488.261782,718.953609 559.666418,764.133115 536.343309,769 C529.337949,768.603214 525.116297,761.461074 517.128606,762.11755 C503.815788,758.770578 467.935703,733.318301 479.133745,717" id="Fill-6"/><path d="M629.600309,757 C636.446336,758.465206 689.999813,792.349836 672.507482,796 C667.253461,795.702411 664.087223,790.345806 658.096455,790.838163 C648.111841,788.327934 621.201777,769.238725 629.600309,757" id="Fill-6"/><path d="M329.308628,317 C298.012185,306.779622 354.739589,285.557338 365.937327,282.883147 C374.497549,278.921431 391.04315,289.17271 378.410905,296.097022 C363.639255,306.516967 348.19652,315.599172 329.308628,317" id="Fill-8"/><path d="M530.03615,659 C516.572123,652.985113 469.232098,652.307544 478.097851,631.305508 C480.77963,610.035565 557.608722,648.537347 530.03615,659" id="Fill-10"/><path d="M480,809.915179 C488.219181,781.194087 526.877818,830.11496 533,840.928454 C514.876126,841.873373 481.183024,833.560442 480,809.915179" id="Fill-12"/><path d="M56.6167067,316.086709 C38.2585817,322.774267 -9.81763968,290.923761 14.9322817,279.451792 C27.8200097,274.762937 65.668566,307.929986 56.6167067,316.086709" id="Fill-14"/><path d="M69.9993809,229.213374 C82.8684506,224.54206 123.88143,298.311141 89.7117393,280.103352 C81.1653092,276.042933 51.4130995,227.885627 69.9993809,229.213374" id="Fill-16"/><path d="M137.072624,221.440938 C135.423312,190.559842 162.436226,225.263801 160.172206,238.585622 C160.156411,245.828529 163.386588,253.053125 161.295002,260.262028 C146.386696,274.38818 137.92558,229.662121 137.072624,221.440938" id="Fill-18"/><path d="M109.072624,80.4333457 C107.423312,49.5522498 134.436226,84.2562087 132.172206,97.5780299 C132.156411,104.820936 135.386588,112.045533 133.295002,119.254435 C118.386696,133.380588 109.92558,88.6545285 109.072624,80.4333457" id="Fill-18"/><path d="M565.949104,703 C573.058689,705.093021 595.192598,715.14298 593.949691,723.564294 C582.587644,746.47043 531.047384,709.767389 565.949104,703" id="Fill-20"/><path d="M694.961828,747 C700.294017,748.569766 716.894449,756.107235 715.962268,762.423221 C707.440733,779.602822 668.785538,752.075542 694.961828,747" id="Fill-20"/><path d="M385.5309,358.451548 C430.820631,361.187715 375.730563,383.930791 358.51549,373.09056 C336.520052,360.469732 376.527945,356.55738 385.5309,358.451548" id="Fill-22"/><path d="M115.690217,187.82607 C101.280746,189.711873 89.4721658,175.948062 92.4682579,161.813274 C93.252246,150.927229 105.169892,146.151563 112.446482,153.600688 C118.472028,163.795854 114.807429,176.222263 115.690217,187.82607" id="Fill-24"/><path d="M95.6902173,38.8184774 C81.2807464,40.7042808 69.4721658,26.9404701 72.4682579,12.8056818 C73.252246,1.91963658 85.1698921,-2.85602936 92.4464824,4.59309551 C98.4720279,14.7882619 94.8074287,27.214671 95.6902173,38.8184774" id="Fill-24"/><path d="M419,815.778255 C402.997757,818.470177 392.044391,796.018174 387.142897,782.860151 C384.93866,763.334494 408.942677,785.242582 410.394343,794.198097 C412.029914,801.968323 417.865274,808.267475 419,815.778255" id="Fill-26"/><path d="M329.790603,238 C311.753189,224.270557 349.955772,201.918159 357,214.922681 C355.326252,225.656318 341.835379,237.504704 329.790603,238" id="Fill-28"/><path d="M29,231.896641 C16.8699777,239.483499 3.4041701,224.967249 0.528394909,213.45827 C0.0653573844,211.152474 -0.912744353,207.977169 2.09049622,206.890284 C17.0572737,195.378638 22.6189267,221.259838 29,231.896641" id="Fill-30"/><path d="M513.004548,505.908791 C502.78524,507.445693 497.993717,489.044303 510.41517,489.513013 C519.249826,489.439211 530.669948,480.97136 538,487.421946 C537.664919,498.167312 521.328108,504.424975 513.004548,505.908791" id="Fill-32"/><path d="M435.175606,327 C400.550058,324.396821 449.727473,298.939149 460,311.428115 C459.850797,323.044112 442.258104,324.870007 435.175606,327" id="Fill-34"/><path d="M256.026176,131.874151 C255.638697,124.17872 259.533526,112.734401 269.01339,114.114044 C272.53811,115.654448 278.735095,118.955314 276.541165,123.517229 C272.375101,136.723327 259.01377,159.652814 256.026176,131.874151" id="Fill-36"/><path d="M593.830773,602 C559.414191,594.962436 598.283923,581.031898 612.925674,592.166606 C621.714344,601.607362 600.123352,599.766328 593.830773,602" id="Fill-38"/><path d="M780.830773,823 C746.414191,815.962436 785.283923,802.031898 799.925674,813.166606 C808.714344,822.607362 787.123352,820.766328 780.830773,823" id="Fill-38"/><path d="M715.669453,671 C689.119519,665.973169 719.104741,656.022784 730.399806,663.976147 C737.179637,670.719544 720.523729,669.40452 715.669453,671" id="Fill-38"/><path d="M192.69878,469.721251 C275.807427,533.15431 147.111013,576.562448 178.381047,472.701002 C152.402521,475.66235 139.84687,504.711957 133.236762,527.165893 C131.930006,530.952686 133.585493,534.242635 137.512342,535.094368 C180.218138,548.185815 231.377713,548.920566 258.30242,507.40911 C271.635809,485.140506 235.684877,458.392417 213.839807,462.474951 C205.916363,464.107439 196.015019,459.236264 192.69878,469.721251 M242.22787,443.717115 C255.004604,448.939235 263.972927,470.562469 276.889153,462.142407 C278.763092,460.653189 282.563608,461.199981 285.423206,461.452346 C296.457599,467.48151 278.503846,472.862673 277.802435,478.534319 C302.83478,535.281013 216.559913,570.900003 170.870817,561.499397 C151.124716,555.407142 114.755306,557.277536 120.059974,528.277877 C122.123412,514.142794 81.5126366,521.395666 88.8991655,506.792656 C100.65734,499.212497 123.720997,509.836812 125.134346,492.119982 C127.500457,484.99855 127.576783,484.897341 120.928513,480.186523 C87.4634443,458.446308 111.594351,438.333323 135.848959,465.835878 C147.120225,469.67919 158.645474,454.300683 169.407461,450.425825 C177.026916,443.547557 164.506795,431.880922 171.132695,422.86675 C183.6186,413.742169 181.11826,446.462901 193.481781,442.664279 C204.172705,437.666921 218.945763,443.597504 227.161352,434.60042 C245.417777,406.757435 265.157298,413.55158 242.22787,443.717115" id="Fill-40"/><path d="M274.016458,703.526577 C307.236438,703.218898 291.392028,666.14233 267.140084,670.878475 C247.401173,677.907744 256.453614,701.591095 274.016458,703.526577 M272.466834,717 C252.625054,716.843531 238.390934,701.147986 240.146295,683.715503 C240.694928,666.564402 260.527476,666.268557 270.451664,656.559593 C321.367689,649.425135 318.992479,712.789802 272.466834,717" id="Fill-42"/><path d="M125,385.993107 C124.621488,402.408415 98.7864192,411.781399 95.7206022,391.253319 C89.6032762,368.741729 124.42898,364.670033 125,385.993107" id="Fill-44"/><path d="M147.680186,374 C130.774834,359.284057 177.088259,356.328581 186.055839,352.28384 C189.964852,351.354574 191.662572,352.708794 192.50744,356.320901 C197.897302,369.585345 157.487312,371.411878 147.680186,374" id="Fill-46"/><path d="M12.0261759,45.8741512 C11.6386973,38.1787197 15.5335255,26.7344008 25.0133903,28.1140441 C28.5381096,29.6544481 34.7350952,32.9553138 32.5411646,37.5172288 C28.3751013,50.7233272 15.0137697,73.652814 12.0261759,45.8741512" id="Fill-36"/></g></g></svg>